STARTFONT 2.1
COMMENT
COMMENT Converted from OpenType font "Q:\font stuff\winfont\Yorkshire.otf" by "otf2bdf 3.0".
COMMENT
FONT -FreeType-Yorkshire-Medium-R-Normal--52-520-72-72-P-368-ISO10646-1
SIZE 52 72 72
FONTBOUNDINGBOX 122 80 -18 -20
STARTPROPERTIES 19
FOUNDRY "FreeType"
FAMILY_NAME "Yorkshire"
WEIGHT_NAME "Medium"
SLANT "R"
SETWIDTH_NAME "Normal"
ADD_STYLE_NAME ""
PIXEL_SIZE 52
POINT_SIZE 520
RESOLUTION_X 72
RESOLUTION_Y 72
SPACING "P"
AVERAGE_WIDTH 368
CHARSET_REGISTRY "ISO10646"
CHARSET_ENCODING "1"
FONT_ASCENT 59
FONT_DESCENT 19
COPYRIGHT "N/A"
_OTF_FONTFILE "Q:\font stuff\winfont\Yorkshire.otf"
_OTF_PSNAME "Yorkshire"
ENDPROPERTIES
CHARS 208
STARTCHAR 0020
ENCODING 32
SWIDTH 288 0
DWIDTH 15 0
BBX 0 0 0 0
BITMAP
ENDCHAR
STARTCHAR 0021
ENCODING 33
SWIDTH 307 0
DWIDTH 16 0
BBX 28 39 6 1
BITMAP
00000030
000000F0
000001F0
000003E0
000007E0
00000FC0
00000FC0
00001F80
00003F00
00007F00
00007E00
0000FC00
0000F800
0001F000
0003F000
0003E000
0007C000
00078000
000F0000
000E0000
001C0000
00380000
00380000
00700000
00600000
00C00000
01800000
01000000
02000000
02000000
04000000
00000000
00000000
10000000
7C000000
FC000000
FC000000
FC000000
78000000
ENDCHAR
STARTCHAR 0023
ENCODING 35
SWIDTH 519 0
DWIDTH 27 0
BBX 25 40 14 1
BITMAP
000E0E00
000E0E00
000C0E00
001C0C00
001C1C00
001C1C00
00181C00
00381800
00383800
00383800
00303800
00703000
00707000
1FFFFF80
1FFFFF80
00E0E000
00E0E000
00E0E000
01C0E000
01C0C000
01C1C000
01C1C000
01C1C000
0381C000
03818000
7FFFFC00
FFFFFC00
07030000
07070000
07070000
06070000
0E060000
0E0E0000
0E0E0000
0C0E0000
1C0C0000
1C1C0000
1C1C0000
181C0000
38180000
ENDCHAR
STARTCHAR 0024
ENCODING 36
SWIDTH 961 0
DWIDTH 50 0
BBX 60 49 10 -5
BITMAP
00000000000001E0
0000000000000630
0000000000001810
0000000032007010
000000002400E030
000000006C01C020
00000000C803C040
0000000090078080
00000001B0070180
00000003200F0200
00000003401E0C00
00000006C01E1800
00000005803E2000
0000000D003CC000
00001FFB007F0000
00007C0F00780000
0001E00380F80000
00078000C0F80000
000E000041F80000
001C000063F00000
003800002FF00000
0070000039F00000
0060000031E00000
00C0000063E00000
00800001E3E00000
0180000323E00000
0100000C67C00000
0300001847C00000
0300006047800000
020001C08F800000
020003010F000000
02000E021F000000
020018041E000000
020070083C000000
0201C03038000000
0107000078000000
010E0000F0000000
81F80001E0000000
43E0000180000000
3FC0000700000000
0020000E00000000
0018001800000000
003700E000000000
0027FF8000000000
004C000000000000
004C000000000000
0098000000000000
0190000000000000
0130000000000000
ENDCHAR
STARTCHAR 0025
ENCODING 37
SWIDTH 750 0
DWIDTH 39 0
BBX 51 43 6 -2
BITMAP
0000000E000060
0000003F0000E0
000000F88001E0
000001F08003E0
000003E0800780
000007E0801F00
00000FA1803C00
00001F2100F000
00001F1307C000
00003E0FFB0000
00007C0E0E0000
0000781C1C0000
0000F838380000
0000F070700000
0000F0E1C00000
0000E1C3800000
0000E387000000
0000671E000000
00003C3C000000
00000078000000
000000F0000000
000003E0000000
000007C0000000
00000F00000000
00001E00000000
00003C00F80000
00007803CC0000
0001F00F0C0000
0003C01E0C0000
0007803E1C0000
000F007C1C0000
001C00F8180000
007801F0380000
00F001E0700000
01C003E0600000
038003C0E00000
06000781C00000
0C000783800000
18000707000000
2000070E000000
40000318000000
800001E0000000
80000000000000
ENDCHAR
STARTCHAR 0026
ENCODING 38
SWIDTH 1173 0
DWIDTH 61 0
BBX 51 43 25 1
BITMAP
00FFF000000000
07800800000000
1E000000000000
38000000FFF800
7800001F800F00
700000FE000380
E00001F8000380
E00007E0000380
E0000FC0000780
E0001F80000700
60003F00000E00
70003E00003C00
30007E0000F000
18007C00078000
0E007C003C0000
03807C0FC00000
007FFFF0000000
00003C00000000
00003C00000000
00001C00000000
000007FF000000
00001FFF000000
0000F07E000000
000F8000000000
007E0000000060
01F807FFFFFF80
03F00FFFFFFF00
0FC03FFFFFFC00
1F807FFFFF8000
3F00E001F00000
3E030000F00000
7E000000E00000
7C000000E00000
FC000001C00000
FC000001800000
F8000003000000
F8000006000000
FC00000C000000
7C000038000000
7E000060000000
3F000380000000
1FC01C00000000
07FFE000000000
ENDCHAR
STARTCHAR 0028
ENCODING 40
SWIDTH 326 0
DWIDTH 17 0
BBX 36 51 7 -6
BITMAP
0000000030
0000000060
00000000C0
0000000180
0000000300
0000000600
0000000C00
0000001C00
0000003800
0000007000
000000E000
000001C000
0000038000
0000078000
0000070000
00000E0000
00001C0000
00003C0000
0000780000
0000700000
0000E00000
0001E00000
0003C00000
0003800000
0007800000
000F000000
001E000000
001E000000
003C000000
0038000000
0078000000
00F0000000
00E0000000
01E0000000
01C0000000
0380000000
0380000000
0700000000
0700000000
0E00000000
0C00000000
1C00000000
1800000000
1800000000
3000000000
3000000000
2000000000
6000000000
6000000000
4000000000
C000000000
ENDCHAR
STARTCHAR 0029
ENCODING 41
SWIDTH 346 0
DWIDTH 18 0
BBX 36 51 -1 -6
BITMAP
0000000030
0000000030
0000000060
0000000060
0000000060
00000000C0
00000000C0
00000001C0
0000000180
0000000380
0000000300
0000000700
0000000600
0000000E00
0000001E00
0000001C00
0000003800
0000003800
0000007000
000000F000
000000E000
000001E000
000003C000
0000038000
0000078000
00000F0000
00000E0000
00001E0000
00003C0000
0000380000
0000700000
0000F00000
0001E00000
0001C00000
0003800000
0007800000
000F000000
000E000000
001C000000
0038000000
0070000000
00E0000000
01C0000000
0180000000
0300000000
0600000000
0C00000000
1800000000
3800000000
6000000000
C000000000
ENDCHAR
STARTCHAR 002A
ENCODING 42
SWIDTH 461 0
DWIDTH 24 0
BBX 14 16 26 20
BITMAP
0100
0300
0300
C304
F378
7BF0
1EE0
0F80
1FC0
3FE0
7B70
F338
0300
0300
0200
0200
ENDCHAR
STARTCHAR 002B
ENCODING 43
SWIDTH 750 0
DWIDTH 39 0
BBX 30 29 17 6
BITMAP
00000700
00000700
00000F00
00001E00
00001E00
00003C00
00003800
00007800
00007000
0000F000
0000E000
0001E000
0001C000
7FFFFFFC
7FFFFFF8
FFFFFFF8
000F0000
000E0000
001E0000
001C0000
003C0000
00780000
00780000
00F00000
00E00000
01E00000
01C00000
03C00000
07800000
ENDCHAR
STARTCHAR 002C
ENCODING 44
SWIDTH 211 0
DWIDTH 11 0
BBX 10 11 0 -6
BITMAP
0100
07C0
0FC0
0FC0
0F80
0780
0300
0E00
1800
F000
C000
ENDCHAR
STARTCHAR 002E
ENCODING 46
SWIDTH 211 0
DWIDTH 11 0
BBX 6 6 4 0
BITMAP
10
7C
FC
FC
F8
70
ENDCHAR
STARTCHAR 002F
ENCODING 47
SWIDTH 365 0
DWIDTH 19 0
BBX 28 38 9 1
BITMAP
00000010
00000010
00000030
00000060
00000040
000000C0
00000180
00000300
00000600
00000C00
00001800
00001800
00003000
00006000
0000C000
00018000
00030000
00070000
000E0000
001C0000
00180000
00300000
00600000
00C00000
00C00000
01800000
03000000
06000000
04000000
0C000000
18000000
18000000
30000000
20000000
60000000
40000000
C0000000
80000000
ENDCHAR
STARTCHAR 0030
ENCODING 48
SWIDTH 750 0
DWIDTH 39 0
BBX 42 39 12 1
BITMAP
00000001FE00
0000000F8700
0000003C0380
000001F801C0
000003E001C0
00000FC001C0
00001F8001C0
00007F0003C0
0000FE0003C0
0001FC0003C0
0003F80007C0
000FF0000F80
001FE0000F80
003FC0001F80
007F80003F00
007F00003F00
00FE00007E00
01FC0000FC00
03F80000FC00
07F00001F800
0FE00003F000
0FC00007F000
1F80000FE000
1F80001FC000
3F00003F8000
3E00007F0000
7E0000FE0000
7C0001FC0000
F80003F80000
F80007F00000
F0000FE00000
F0001FC00000
E0003F000000
E000FE000000
E001F8000000
6007F0000000
600FC0000000
307E00000000
0FF000000000
ENDCHAR
STARTCHAR 0031
ENCODING 49
SWIDTH 750 0
DWIDTH 39 0
BBX 36 39 16 0
BITMAP
0000000010
0000000060
00000000E0
00000001C0
0000000380
0000000700
0000000E00
0000001C00
0000003C00
0000007800
000001F000
000003E000
00000DC000
00001B8000
0000670000
0000CE0000
00039C0000
0006380000
000C700000
0000F00000
0001E00000
0003C00000
0007800000
000F000000
001F000000
003E000000
007C000000
00F8000000
01F8000000
03F0000000
07E0000000
0FC0000000
1FC0000000
1F80000000
3F00000000
7E00000000
FE00000000
FC00000000
FC00000000
ENDCHAR
STARTCHAR 0032
ENCODING 50
SWIDTH 750 0
DWIDTH 39 0
BBX 45 39 7 1
BITMAP
00000000FF00
000000070FC0
0000003803E0
0000004001F0
0000018001F8
0000020001F8
0000040001F8
0000080001F8
0000100001F8
000020E003F8
000021F003F0
000043F007F0
000043F00FE0
000043E00FE0
000041C01FC0
000021803F80
00001E007F00
00000000FE00
00000003F800
00000007F000
0000000FC000
0000001F0000
0000007C0000
000001F00000
000003C00000
00000F000000
000078000000
0001E0000000
000780000000
001E00000000
007800000000
00E000000000
038000000000
060000300000
180007F00000
37FFFFE00000
7FFFFFC00000
7FFFFF000000
FFFFFC000000
ENDCHAR
STARTCHAR 0033
ENCODING 51
SWIDTH 750 0
DWIDTH 39 0
BBX 46 39 11 -1
BITMAP
0000003FFFFC
000001FFFFF8
000007FFFFF0
00000FFFFFE0
00001C0000C0
000030000380
000020000E00
000000001800
000000006000
00000001C000
000000070000
0000000C0000
000000300000
000000C00000
000007000000
00003C000000
0000FFC00000
0003C1F00000
000300F80000
0000007C0000
0000007E0000
0000007E0000
0000007E0000
0000007E0000
000000FE0000
000000FE0000
0F8001FC0000
13C001F80000
27C003F80000
4FC007F00000
CFC007E00000
8F800FC00000
87001F800000
80003F000000
8000FC000000
4001F8000000
6003E0000000
181F80000000
07F800000000
ENDCHAR
STARTCHAR 0034
ENCODING 52
SWIDTH 750 0
DWIDTH 39 0
BBX 41 38 13 1
BITMAP
000000007F80
00000000FF00
00000001FC00
00000003F800
00000007E000
0000000FC000
0000001F0000
0000003C0600
000000F00C00
000001E03800
000007807000
00000E00E000
00003801C000
0000E0038000
000300070000
000C000F0000
0030001E0000
0040003C0000
018000780000
060000F00000
080001F00000
300003E00000
400007C00000
80000F800000
80001F000000
C0003F000000
7FFFFFFC0000
0001F8000000
0003F8000000
0003F0000000
0007E0000000
000FE0000000
000FC0000000
001F80000000
003F00000000
007F00000000
007E00000000
00FC00000000
ENDCHAR
STARTCHAR 0035
ENCODING 53
SWIDTH 750 0
DWIDTH 39 0
BBX 47 41 11 0
BITMAP
00000000000E
0000001FFFFC
0000007FFFF8
000000FFFFF0
000000FFFFE0
000001FFF000
000003800000
000006000000
000004000000
000008000000
000010000000
000020000000
000040000000
000040000000
00008FE00000
0001F07C0000
0003803E0000
0003001F0000
0004001F0000
0000001F8000
0000001F8000
0000001F8000
0000001F8000
0000003F8000
0000003F8000
0000003F0000
0000007F0000
0F0000FE0000
13C000FE0000
27C001FC0000
4FC003F80000
4FC007F00000
8F800FE00000
87000FC00000
80001F800000
80007E000000
8000FC000000
4001F0000000
6007E0000000
381F00000000
0FF000000000
ENDCHAR
STARTCHAR 0036
ENCODING 54
SWIDTH 750 0
DWIDTH 39 0
BBX 43 40 15 0
BITMAP
000000007F00
00000007C0C0
0000001F0060
000000FC0020
000003F00020
00000FC01F20
00001F801F20
00007E003F40
0000FC003E40
0003F8003D80
0007F0001E00
000FE0000000
001F80000000
003F00000000
007F1F800000
00FEE1C00000
01FF80E00000
03FE00700000
03FC00700000
07F000780000
0FE000780000
1FC000780000
1F8000F80000
3F0000F80000
3E0000F80000
7E0001F00000
7C0003F00000
780003E00000
F80007E00000
F0000FC00000
F0000F800000
F0001F800000
E0003F000000
E0007E000000
6000F8000000
6001F0000000
6007C0000000
300F00000000
183C00000000
07E000000000
ENDCHAR
STARTCHAR 0037
ENCODING 55
SWIDTH 750 0
DWIDTH 39 0
BBX 46 38 11 1
BITMAP
000003FFFFFC
000007FFFFF8
00000FFFFFF0
00001FFFFFE0
0000380000C0
000040000180
000000000700
000000000E00
000000003800
000000007000
00000001E000
00000003C000
000000078000
0000001F0000
0000003E0000
0000007C0000
000001F00000
000003E00000
000007C00000
00001F800000
00003F000000
00007E000000
0000FC000000
0003F0000000
0007E0000000
000FC0000000
001F80000000
003F00000000
00FE00000000
01FC00000000
03F800000000
07F000000000
0FE000000000
1FC000000000
1F8000000000
3F0000000000
7E0000000000
FE0000000000
ENDCHAR
STARTCHAR 0038
ENCODING 56
SWIDTH 750 0
DWIDTH 39 0
BBX 44 40 11 -2
BITMAP
00000007FC00
0000003E0F00
000000F003C0
000001E001E0
000007C001E0
00000F8001F0
00000F0001F0
00001F0001F0
00001E0003F0
00003E0003E0
00003E0007E0
00003E000FC0
00003E001F80
00003F003E00
00003F00FC00
00001F83E000
00001FFF0000
00001FF00000
00003FE00000
0003E7F00000
003F03F80000
00F803F80000
03F001FC0000
07C000FC0000
1F8000FE0000
3F0000FE0000
3E00007E0000
7C00007E0000
FC00007E0000
F800007E0000
F800007C0000
F800007C0000
F80000F80000
F80000F80000
780001F00000
7C0003C00000
3C0007800000
0E001E000000
078078000000
00FFC0000000
ENDCHAR
STARTCHAR 0039
ENCODING 57
SWIDTH 750 0
DWIDTH 39 0
BBX 44 40 8 0
BITMAP
000000007E00
00000007C180
0000001F00C0
0000007C0060
000001F80060
000003F00070
000007E00070
00000FC00070
00001F800070
00003F0000F0
00007E0000F0
0000FC0001F0
0000F80001E0
0001F80003E0
0001F00003E0
0001F00007C0
0003E0000FC0
0003E0001F80
0003C0003F80
0003C0007F00
0003C000FE00
0001C003FC00
0001C007FC00
0000E01FF800
00007077F000
00001F8FE000
0000001FC000
0000003F8000
0000007F0000
000000FC0000
0F8001F80000
33C007F00000
47C00FC00000
4FC01F800000
8F807E000000
8701F8000000
8003E0000000
C01F00000000
607C00000000
1FC000000000
ENDCHAR
STARTCHAR 003A
ENCODING 58
SWIDTH 230 0
DWIDTH 12 0
BBX 14 18 5 0
BITMAP
0038
007C
00FC
00FC
00F8
0070
0000
0000
0000
0000
0000
0000
1000
7C00
FC00
FC00
F800
7000
ENDCHAR
STARTCHAR 003B
ENCODING 59
SWIDTH 250 0
DWIDTH 13 0
BBX 17 24 2 -6
BITMAP
000700
000F80
001F80
001F80
001F00
000E00
000000
000000
000000
000000
000000
000000
000000
010000
07C000
0FC000
0FC000
0F8000
078000
030000
060000
180000
F00000
C00000
ENDCHAR
STARTCHAR 003D
ENCODING 61
SWIDTH 750 0
DWIDTH 39 0
BBX 33 9 16 16
BITMAP
07FFFFFF80
0FFFFFFF00
1FFFFFFF00
0000000000
0000000000
0000000000
7FFFFFFC00
7FFFFFF800
FFFFFFF000
ENDCHAR
STARTCHAR 003F
ENCODING 63
SWIDTH 634 0
DWIDTH 33 0
BBX 33 40 18 0
BITMAP
00001FC000
0001E0F800
0006007C00
0018003E00
0020001F00
0040001F00
0080001F80
0100001F80
0200001F80
0600003F80
0400003F80
0C00007F00
0800007F00
080400FE00
080C01FE00
080801FC00
043003F000
03C007E000
00000FC000
00003F0000
00007C0000
0000F00000
0003C00000
000F000000
0038000000
00E0000000
0380000000
0600000000
0400000000
0800000000
0800000000
0C00000000
0780000000
0000000000
3000000000
7800000000
F800000000
F800000000
F800000000
7000000000
ENDCHAR
STARTCHAR 0040
ENCODING 64
SWIDTH 807 0
DWIDTH 42 0
BBX 35 39 6 -1
BITMAP
0001FF8000
000FFFE000
003F83F800
00F8003C00
01F0001E00
03C0000F00
0780000780
0F00700380
0E01FCC1C0
1C03FFC1C0
3C0707C0C0
380E0380E0
781C0380E0
701C0380E0
70380380E0
F0380380E0
E0780300E0
E0700700E0
E0700700E0
E0700700C0
E0700601C0
E0700E01C0
E0700E0180
E0700E0380
E0701E0300
F0701E0700
70703E0E00
70386E1C00
781FC7F800
380F87F100
3C00000300
1E00000700
0F00000E00
0780001C00
03C0007800
01F001E000
00FFFFC000
001FFF0000
0003F00000
ENDCHAR
STARTCHAR 0041
ENCODING 65
SWIDTH 1038 0
DWIDTH 54 0
BBX 69 46 8 -3
BITMAP
000000000000000038
0000000000000001F0
000000000000000770
0000000000000018E0
0000000000000061C0
00000000000000C380
000000000000030700
000000000000060E00
0000000000000C1E00
000000000000103C00
000000000000607800
000000000000C07000
00000000000180F000
00000000000301E000
00000000000603C000
00000000000C078000
0000000000180F8000
0000000000301F0000
0000000000601E0000
0000000000E03E0000
000FE00001C07C0000
007818000380F80000
01E00C000701F00000
03C004000E01F00000
070002001C03E00000
0E0002003C07C00000
1C000200780F800000
3806027FFFFF800000
380C0201E03F000000
70080403C07E000000
60080C07007E000000
6008080E00FC000000
E00C301C00F8000000
C003C01C01F8000000
C000003801F0000000
C000007001F0000000
C00000E003E0000000
400001C003C0000000
6000030003C0000000
60000E0003C0000000
30001C000380000000
180070000380000000
0703C0000180000000
01FF00000182000000
0000000000C6000000
000000000078000000
ENDCHAR
STARTCHAR 0042
ENCODING 66
SWIDTH 1134 0
DWIDTH 59 0
BBX 63 45 10 -3
BITMAP
0000000000000038
0000000007FFFFC0
000000007C001F00
00000007C0003BC0
0000001E000070E0
000000780000E070
000001E00001C038
000003800003C01C
000007000407801C
00000E000C0F001E
00001C00081E001E
00001C00103E001E
00003800203C001E
000038004078003E
0000380080F8003E
0000380301F0007C
00001C0601E0007C
00000E1803E000F8
000007E007C001F0
000000000FC003E0
000000000F800FC0
000000001F001F80
000000003F007E00
000FE0003E7FE000
007818007C008000
01E00400FC00C000
03820200F8006000
0F020201F8007000
1E040203F0007800
1C080203E0007800
38080607C0007800
7008040FC000F800
7008080FB000F800
6004301F6001F000
E003C03EC001F000
C000007C8003E000
C00000F90007E000
C00001F1000FC000
C00003E1001F8000
40000781003E0000
60000F01807C0000
30001C00C1F00000
180078003F800000
0E03C00000000000
01FE000000000000
ENDCHAR
STARTCHAR 0043
ENCODING 67
SWIDTH 1038 0
DWIDTH 54 0
BBX 49 45 23 -2
BITMAP
00FF0000000000
07C1C000000000
0F007000000000
1C00180001FE00
380000001F8100
70000000FC0080
60000003F00080
E000000FC00080
C000003F000180
C00000FC000100
C00003F8000300
C00007E0000E00
C0001FC0001C00
40003F00003000
40007E0000E000
2000FC00038000
3003F0000E0000
1007E000380000
0C0FC001E00000
020F800F000000
019F81F8000000
007FFE00000000
007E0000000000
00FC0000780000
00F80003FE0000
01F800060E0000
01F00018070000
03E00030070000
03E00060070000
03E000C0060000
07C00180060000
07C000000E0000
078000000C0000
07800000180000
07800000380000
07800000300000
07800000600000
07800000C00000
03800001000000
03C00006000000
01C0000C000000
00E00030000000
007000C0000000
003C0700000000
0007F800000000
ENDCHAR
STARTCHAR 0044
ENCODING 68
SWIDTH 1211 0
DWIDTH 63 0
BBX 65 43 10 0
BITMAP
0000000003FFFFFE00
000000007F0007C000
00000003E0000E3000
0000001F00003C1800
0000007C0000780C00
000000F00000F00600
000001E00101E00600
000003C00203C00300
000007800407800300
00000F000C0F800380
00000E00181F000380
00000E00301E000380
00000E00603E000380
00000E00807C000380
0000060100F8000780
0000078601F8000780
000001F801F0000780
0000000003E0000F00
0000000007E0000F00
000FE0000FC0001F00
007810000F80001E00
01E00C001F00003E00
03C004003F00003C00
070002003E00007C00
0E0202007C0000F800
1C060200FC0000F000
380C0200F80001F000
38080201F00003E000
70080403F00007C000
60080407E0000F8000
E008080FC0000F0000
E004300F80001E0000
C003C01F00003C0000
C000003E0000780000
C000007C0000F00000
C00000F00001E00000
400001E00007C00000
400003C0000F000000
20000F20001E000000
30001E100078000000
1800781801E0000000
0701E00C0780000000
01FE0003F800000000
ENDCHAR
STARTCHAR 0045
ENCODING 69
SWIDTH 1000 0
DWIDTH 52 0
BBX 48 44 23 0
BITMAP
00FFE0000000
07C078000000
0E0008000000
1C0000007FF0
38000007E01E
7000001F0006
E000007C0007
E00001F00007
E00003E00007
E0000FC0000E
E0001F80000E
60001F000038
70003E000070
30003E0001C0
1C007C000700
0E007C007800
03E07C0F8000
003FFFF00000
00007C000000
00003C000000
00000E000000
00003FFF0000
0003F0000000
001F80000000
007E00000000
01FC00000000
07F0000FC000
0FE00030E000
1FC000407000
3F8001807000
3F0003007000
7E0004007000
7E0000006000
FC000000E000
FC000000C000
FC0000018000
F80000030000
F80000060000
7C00000C0000
7C0000300000
3C0000C00000
1E0003000000
07C03C000000
00FFC0000000
ENDCHAR
STARTCHAR 0046
ENCODING 70
SWIDTH 826 0
DWIDTH 43 0
BBX 67 44 10 -1
BITMAP
0000000FFC000007C0
0000007FFFC0003820
000003FFFFFC00E060
00000FFFFFFFC381C0
00001FF00FFFFFFF00
00003C00000FFFF000
000060000000700000
0000C0000000E00000
000180001001E00000
000100002003C00000
00030000C007800000
00020001800F000000
00020003001F000000
00020006001E000000
0002000C003C000000
00010030007C000000
0001C1C000F8000000
00007F0001F0000000
0000000003F0000000
0000000003E0000000
0007F00007C0000000
003C0C000FC0000000
00E006000F80000000
03C002001F00000000
078001003F00000000
0E0001003E00000000
1E02017FFFF0000000
1C060100FC00000000
380C0101F800000000
70080201F000000000
70080603E000000000
60080C07C000000000
E004380F8000000000
C003E01F0000000000
C000003E0000000000
C000007C0000000000
C00000F80000000000
400001F00000000000
600003C00000000000
600007800000000000
30001E000000000000
180078000000000000
0601E0000000000000
01FF00000000000000
ENDCHAR
STARTCHAR 0047
ENCODING 71
SWIDTH 1019 0
DWIDTH 53 0
BBX 65 58 9 -14
BITMAP
00000FF80000000000
00003C070000000000
0000700000001FF000
0000E0000003FFFE00
0001C000001FFC0700
0003800000FF800180
0003800003FE000180
000700000FF0000180
000700003FC0000380
00070000FF00000700
00070001FE00000E00
00070007F800001C00
0007000FE000007800
0003801FC00001F000
0003803F000007C000
0001807E00003E0000
0001C1FC0001F00000
0000E1F8001F000000
000033F003F0000000
00001FFFFC00030000
00001F800000060000
00001F0000001C0000
00001E000000380000
00001E000000700000
00003C000001E00000
00003C000003C00000
00003C00000FC00000
00003800001F800000
00003800007F000000
0000380000BF000000
00001800033E000000
00001C000C7C000000
00001C0038FC000000
00000E00E1F8000000
0000070781F0000000
003F81FC03F0000000
01E0E00007E0000000
030030000FC0000000
0E0018000FC0000000
1C0008001F80000000
380008003F00000000
300008003F00000000
700008007E00000000
60001800FC00000000
E0001001F800000000
C0006001F000000000
C000C003F000000000
C0070007E000000000
C000000FC000000000
C000001F0000000000
4000003E0000000000
6000007C0000000000
600000F00000000000
300003E00000000000
180007800000000000
0E001E000000000000
0380F8000000000000
00FF80000000000000
ENDCHAR
STARTCHAR 0048
ENCODING 72
SWIDTH 1115 0
DWIDTH 58 0
BBX 75 45 10 -3
BITMAP
0000001FE00000600060
000000F01C00038001C0
0000038006000E000380
0000060001007C000600
00001C000000B8001C00
00001800000370003800
000030000004E0007000
000060000019E000E000
000060000023C001C000
0000C00000C780038000
0000C000010F00078000
0000C000061F000F0000
0000C000083E001E0000
0000C000307C003C0000
00006000C0F800780000
0000600300F800F00000
0000381C01F001E00000
00000FE003E003C00000
0000000007E007C00000
000FE00007C00F800000
007C18000F800F000000
00E00C001F801F000000
03C006001F003E000000
070002003E007C000000
0E0002007E00F8000000
1C000200FC01F8000000
3C02027FFFFFF0000000
38040201F003E0000000
70080403E007E0000000
70080C07E00FC0000000
6008080FC00F80000000
E00C300F801F80000000
C007C01F001F00000000
C000003E003E00000000
C000007C003E00000000
C00000F0007C00000000
400001E0007C00000000
600003C0007800000000
20000F00007800000000
30001E00007000000000
18007800007000000000
0701C000007000000000
01FE0000003040000000
00000000001880000000
00000000000F00000000
ENDCHAR
STARTCHAR 0049
ENCODING 73
SWIDTH 750 0
DWIDTH 39 0
BBX 58 44 10 0
BITMAP
00000000000001C0
0000000000000FC0
000000000003F300
0000000000FE0E00
000000000FC01800
000000007E003000
00000003F000E000
00000007C001E000
0000001F0003C000
0000003C00078000
0000007800070000
000000F0000E0000
000000F0001E0000
000001E0003C0000
000001C000780000
000003C000F00000
0000038001F00000
0000038003E00000
0000038003C00000
0000018007C00000
000001800F800000
000000C0DF000000
000FE03F1F000000
007C18003E000000
01E004007C000000
038006007C000000
07020200F8000000
0E040201F0000000
1C0C0203E0000000
38080203E0000000
30080407C0000000
7008080F80000000
600C301F00000000
E007C03E00000000
C000003C00000000
C000007800000000
C00000F000000000
C00001C000000000
4000078000000000
60000F0000000000
30001C0000000000
1800700000000000
0F03C00000000000
01FE000000000000
ENDCHAR
STARTCHAR 004A
ENCODING 74
SWIDTH 730 0
DWIDTH 38 0
BBX 67 60 -1 -16
BITMAP
0000000000000001E0
000000000000000FC0
000000000000007B00
00000000000003C600
0000000000003C0800
000000000003E01000
00000000003F006000
0000000001F000C000
000000000F80018000
000000003E00038000
00000000F800070000
00000003E0000E0000
0000000780001C0000
0000001E0000380000
0000003C0000780000
000000700000F00000
000000E00001E00000
000001C00003C00000
000001C00007C00000
00000380000F800000
00000300001F000000
00000700001F000000
00000600003E000000
00000600007C000000
0000060000F8000000
0000060001F8000000
0000020001F0000000
0000030003E0000000
0000010007E0000000
000000C00FC0000000
0000003FCF80000000
000000001F80000000
000000007F00000000
0000003FFFC0000000
000007F0FC20000000
00003E00FC00000000
0001F001F800000000
00078001F000000000
001E0003E000000000
00380007C000000000
00E00007C000000000
01C0000F8000000000
0380001F0000000000
0700001E0000000000
0E00003C0000000000
1C00007C0000000000
180000780000000000
300000F00000000000
600000E00000000000
600001C00000000000
400003800000000000
C00007000000000000
80000E000000000000
80003C000000000000
800070000000000000
8000E0000000000000
800380000000000000
400E00000000000000
207800000000000000
1FC000000000000000
ENDCHAR
STARTCHAR 004B
ENCODING 75
SWIDTH 1096 0
DWIDTH 57 0
BBX 86 47 10 -3
BITMAP
00000007F80000300000FC
0000007C070000C0000780
000001E000800300001E00
0000038000000E00003800
000007000000380000F000
00000E000000F00001E000
00001C000001E000078000
000018000007E0000F0000
00003800001BC0001C0000
0000300000278000780000
0000300000CF0000F00000
00003000031F0001C00000
00003000043E0003800000
00001000387C000E000000
00001800E0F8001C000000
00000E0700F80070000000
000003F801F000C0000000
0000000003E00300000000
0000000007E00C00000000
0000000007C07000000000
001FE0000FFFC000000000
007818001FC0C000000000
01E00C003F006000000000
03C004003F003000000000
0F0002007E003800000000
0E000200FC003800000000
1C060200F8003800000000
38040201F8007800000000
38080203F000F000000000
70080407E001F000000000
60080C07C001E000000000
6008080F8003C000000000
E004301F0007C000000000
C003C03E000F8000000000
C000007C001F0000000000
C00000F8003E0000000000
C00000F0003C0000000000
400003E000780000000000
6000078000700000000000
60000F0000E00000000000
30001C0000E00000000000
1800780000C00000000000
0703C00000C00000000000
01FE000000C08000000000
0000000000418000000000
0000000000638000000000
00000000001E0000000000
ENDCHAR
STARTCHAR 004C
ENCODING 76
SWIDTH 942 0
DWIDTH 49 0
BBX 66 52 5 -5
BITMAP
000000000000000780
000000000000001CC0
000000000000003040
000000007FE000E040
00000003C03801C040
0000001E00060380C0
000000380001070080
000000E000000F0180
000001C000001E0300
0000038000003C0200
000003800000780600
000007000000F80C00
000007000001F01800
00000E000001E03000
00000E000003C06000
00000E000007C0C000
00000E00000F838000
00000600001F070000
00000700001F0E0000
00000300003E380000
00000380007E700000
000001C000FDC00000
0000007000FF000000
0000001E01F8000000
00000003FFF0000000
000000000FE0000000
0000000007C0000000
000000000F80000000
000000001F80000000
000000001F00000000
000000003E00000000
000000007C00000000
00000000F800000000
00000000F000000000
00000001E000000000
00000003C000000000
000000078000000000
03FE000F0000000000
1FFFE01E0000000000
3FFFFC3C0000000000
600FFFF00000000000
C0007FF00000000000
80001FF80000000000
80001FFE0000000000
4000707F0000000000
3007C01FC000000000
0FFC0003F000000000
00000000FE00000000
000000007F80000000
000000001FF8000000
0000000003FFF80000
00000000003FC00000
ENDCHAR
STARTCHAR 004D
ENCODING 77
SWIDTH 1326 0
DWIDTH 69 0
BBX 85 47 8 -1
BITMAP
0000000000000000E00000
0000000000000003C00018
0000000000000007800070
000000000000000F0000E0
000000000000003E0003C0
000000000000006C0005C0
00000000000000D8001B80
00000000000001B0002700
0000000000000260004E00
00000000000004E0019C00
00000000000009C0033800
00000000000013C0067000
000000000000238008E000
000000000000478031E000
0000000000008F0063C000
0000000000010E00C78000
0000000000031E01870000
0000000000063C030F0000
00000000000C3C061E0000
000000000018780C3C0000
000000000030F818780000
000000000060F030F80000
000FE00000E1F061F00000
0038180001C1E0E3E00000
00E00C000383E0C3E00000
03C006000703C187C00000
070002000E07C30F800000
0E0002001C07860F800000
1C0C0200380F8C1F000000
18080200700F183E000000
38100600E01F303E000000
70100401C01E607C000000
60100803803C4078000000
60101807003C80F8000000
E008600E007900F0000000
C007C00C007A01F0000000
C000001800F401E0000000
C000003000F801E0000000
C000006001F003C0000000
C00000C003E003C0000000
4000018003C00380000000
6000070007800380000000
20000C000F000380000000
300018000C000180000000
1800600018000180000000
06018000300000C3000000
01FC00000000007C000000
ENDCHAR
STARTCHAR 004E
ENCODING 78
SWIDTH 1096 0
DWIDTH 57 0
BBX 85 43 8 1
BITMAP
00000000000000600000F8
00000000000000C0000780
0000000000000380000E00
0000000000000700001C00
0000000000000F00007000
0000000000001E0000E000
0000000000003E0001C000
0000000000007E00038000
0000000000005C00070000
000000000000BC000E0000
0000000000013C001C0000
0000000000027800380000
0000000000047800700000
0000000000087800E00000
000000000018F800C00000
000000000030F001800000
000000000060F003000000
0000000000C1F006000000
0000000001C1E00C000000
000000000181E00C000000
000FE0000303E018000000
007818000603E030000000
01E004000C03C060000000
038006001C03C0C0000000
070002003807C080000000
1E0402007007C100000000
1C080200E0078200000000
38080201C0078400000000
7010040380078C00000000
70100C07000F0800000000
6010180E000F1000000000
E008301E000F2000000000
C007C01C000E4000000000
C0000038000E8000000000
C00000F0001F0000000000
C00001E0001D0000000000
C00003C0001E0000000000
40000700001C0000000000
60000E0000180000000000
30001C0000380000000000
1800700000300000000000
0603C00000200000000000
01FE000000400000000000
ENDCHAR
STARTCHAR 004F
ENCODING 79
SWIDTH 807 0
DWIDTH 42 0
BBX 45 42 11 0
BITMAP
00000001FF80
0000001FF060
0000007F8030
000001FF0010
000007DC0008
00001FB80008
00003E700008
00007CE00008
0001F8E00008
0003F1C00008
0007E3800018
000FC7000018
001F87000010
003F0E000030
007E0E000030
00FC1C000060
01F81C000060
03F0180000C0
07E0380000C0
07C030000180
0FC030000380
1F8030000300
1F0030000700
3F0030000E00
3E0010001C00
7C0018003800
7C000FC03800
7C0000007000
F8000000E000
F8000001C000
F00000038000
F00000070000
F000000E0000
F000001C0000
F00000300000
700000E00000
700001C00000
380003000000
18000E000000
0C0038000000
0701C0000000
01FE00000000
ENDCHAR
STARTCHAR 0050
ENCODING 80
SWIDTH 1019 0
DWIDTH 53 0
BBX 61 45 10 0
BITMAP
0000000000000060
0000000003FFFF80
000000007F003300
00000003E0006080
0000001E0000C0C0
000000780001C060
000001E000038030
000003C004070030
000007000C0E0038
00000E00081E0038
00001C00101C0038
00001C0030380038
0000380060780038
00003800C0700078
0000380100F00078
0000380201E00070
00001C0401C000F0
00000E1803C001E0
000007C0078001E0
000000000F8003C0
000000001F000780
000FE0001F000F00
007C18003E003E00
00F004007C007C00
03C006007C03F000
07000200F9FF8000
0E000201F8000000
1C000201F0000000
18060203E0000000
38040207C0000000
70080407C0000000
60080C0F80000000
6008181F00000000
C00C301E00000000
C003C03C00000000
C000007800000000
C00000F000000000
C00001E000000000
400003C000000000
6000078000000000
60000E0000000000
3000180000000000
1800700000000000
0E03800000000000
01FC000000000000
ENDCHAR
STARTCHAR 0051
ENCODING 81
SWIDTH 846 0
DWIDTH 44 0
BBX 56 49 0 -8
BITMAP
00000000000FF0
0000000000FC0C
0000000003F006
000000001FC002
000000007F8001
00000001FF0001
00000007EE0001
0000000FDC0001
0000003F380001
0000007E700001
000000FCE00003
000001F8C00003
000007E1C00002
00000FC3800006
00001F83800006
00003F0700000C
00007E0600000C
0000FC0E00001C
0000F80E000038
0001F80C000030
0003F00C000070
0007E00C0000E0
0007C00C0000E0
000F800C0001C0
000F8006000380
001F0003E00700
001F0000000F00
001E0000000E00
003E0000001C00
003C0000003800
003C0000007000
0038000000E000
0038000001C000
00380000030000
001800000E0000
001800001C0000
07FF0000300000
180FF800600000
E006FE01800000
00038FC6000000
0000FFF8000000
00000038000000
0000001F000000
00000007C00000
00000003F00000
00000000FC0000
000000003F0000
000000000FFF00
0000000001FC00
ENDCHAR
STARTCHAR 0052
ENCODING 82
SWIDTH 1057 0
DWIDTH 55 0
BBX 62 42 9 0
BITMAP
0000000007FFFFF8
000000007E000DC0
00000003C0001860
0000001E00003870
0000007800007038
000000E00000E038
000003800201C03C
000007000603C03C
00000E000C07803C
00000C00180F003C
00001C00301F007C
00001800603E007C
00001800C07E00F8
0000180180FC00F8
00000C0600F801F0
0000061C01F803E0
000003E003F007C0
0000000007F00F80
0000000007E01E00
000000000FE07800
000FE0001FFFC000
007818003F008000
01E004003E00C000
038002007E00E000
0F020200FC00E000
1E040201F800E000
1C040201F000C000
38080203E001C000
70080407E003C000
6008040FC00F8000
6008080F800F0000
C004301F001F0000
C003C03E003E0000
C000007C007C0000
C00000F000780000
C00001E000F00000
400003C000F00000
60000F0000E00000
30001C0000E00000
1800700000600000
0603C00000700000
01FE0000001FC000
ENDCHAR
STARTCHAR 0053
ENCODING 83
SWIDTH 846 0
DWIDTH 44 0
BBX 60 44 6 -1
BITMAP
00000000000001E0
0000000000000630
0000000000001810
0000000000003010
000000000000E030
000000000001C020
000000000001C060
00000000000380C0
0000000000070180
00000000000F0300
00000000000E0E00
00000000001E1C00
00000000003E3800
00000000003CE000
00001FF0007DC000
0000FC0C007F0000
0003E00300780000
0007800180F80000
000E0000C0F80000
001C000041F00000
0038000047F00000
007000003DF00000
0060000031F00000
00C0000063E00000
01800001E3E00000
0180000363E00000
0100000C47C00000
0300003847C00000
0200006087800000
020001C18F800000
020003030F000000
02000E061F000000
0200380C1E000000
020070703C000000
0301C0003C000000
0107000078000000
011E0000F0000000
81F80001E0000000
43E00003C0000000
3FC0000700000000
0020000E00000000
0018001800000000
000700E000000000
0001FF0000000000
ENDCHAR
STARTCHAR 0054
ENCODING 84
SWIDTH 807 0
DWIDTH 42 0
BBX 64 45 10 -1
BITMAP
0000001FF000003E
000001FFFE0001E1
00000FFFFFC00701
00001FFFFFF80C06
00007FFFFFFFFFFC
0000FFFFFFFFFFE0
0001FC00007FF800
0003C0000001C000
0007000000038000
0006000180070000
00040001000F0000
000C0002001E0000
00080004003C0000
00080018003C0000
0008003000780000
0008006000F00000
0004018001F00000
0002060003E00000
0001F80003C00000
0000000007C00000
000000000F800000
000FE0000F000000
003818001F000000
00E00C003E000000
03C004003E000000
070002007C000000
0E000200F8000000
1C0E0200F8000000
180C0201F0000000
38080203E0000000
70080403E0000000
60080C07C0000000
6008180F80000000
E004301F00000000
C003C03E00000000
C000003C00000000
C000007800000000
C00000F000000000
400001E000000000
6000038000000000
60000F0000000000
30001C0000000000
1800700000000000
0701C00000000000
01FE000000000000
ENDCHAR
STARTCHAR 0055
ENCODING 85
SWIDTH 1038 0
DWIDTH 54 0
BBX 63 45 18 -2
BITMAP
0000000000000006
000000000000000C
0000000001C0001C
0000000007C00038
001FF0001DC00070
00F00C00338000E0
03800600C70001C0
060000019E000380
0C0000023C000700
1800000C78000E00
30000019F0001C00
60000063C0003800
600000C780007000
C000018F0000F000
C000061E0001E000
C0000C7C0003C000
C00038F800078000
400061F0000F0000
600183F0001F0000
200707E0003E0000
183C0FC0007C0000
0FE01F8000F80000
00003F0001F00000
00007E0003F00000
0000FC0007E00000
0000F8000FC00000
0001F8001F800000
0003F0003F800000
0007E0007F000000
0007C000FE000000
000FC001BC000000
000F80037C000000
001F000678000000
001F000CF0000000
001E0018F0000000
001E0031E0000000
001C0061E0000000
001C00C1C0000000
001C0103C0000000
001C020380000000
000C0C0380000000
000E300380000000
0003C00181000000
00000001C6000000
0000000078000000
ENDCHAR
STARTCHAR 0056
ENCODING 86
SWIDTH 923 0
DWIDTH 48 0
BBX 69 45 14 -1
BITMAP
0000000000000000F0
0000000000000003F8
0000007E0000000FF8
000007018000003F80
00001800E000007E00
00006000600000F800
00018000700003E000
00060000700007C000
000C000070000F8000
00300000F0001F0000
00600000F0003C0000
00C00001E000780000
01800003E000F00000
03000003C001E00000
06000007C003C00000
0C00000F8007800000
1800041F8007000000
38000C3F000E000000
3000083E001C000000
7000107C0038000000
600020F80070000000
E00061F800E0000000
E00043F001C0000000
E00087E00380000000
E00307C00700000000
E0060F800600000000
70181F000C00000000
38603F001800000000
1F807E003000000000
00007C006000000000
0000F800C000000000
0001F0018000000000
0003E0030000000000
0003E0020000000000
0007C0040000000000
000780080000000000
000F00100000000000
000F00200000000000
001E00400000000000
001E00800000000000
001C03000000000000
001C06000000000000
000C0C000000000000
000E30000000000000
0003C0000000000000
ENDCHAR
STARTCHAR 0057
ENCODING 87
SWIDTH 1211 0
DWIDTH 63 0
BBX 81 45 18 -1
BITMAP
0000000000000000000F80
0000000000000000003C00
0000000003C0008000F000
000000000780070001E000
001FE0001B000F00038000
00F01C0066001E00070000
0380040188007C001E0000
060000031000B8003C0000
0C00000430013800780000
1800001860027000F00000
30000031C004F001E00000
60000063C009E001800000
600001838011E003000000
C00003078023C006000000
C000060F00C7C00C000000
C0001C1F0087801C000000
C000301E018F8038000000
C000603E031F0070000000
6001807C061F00E0000000
600700FC0C3E01C0000000
383C00F81C3E0180000000
0FE001F8387E0300000000
000001F0707C0600000000
000003F0E07C0C00000000
000003E0C0F81800000000
000007E180F83000000000
000007C301F06000000000
00000FC701F04000000000
00000F8E01E08000000000
00000F8C03E10000000000
00001F1803C30000000000
00001E3003C60000000000
00001E60078C0000000000
00003CC007980000000000
00003D8007300000000000
00007B000F600000000000
000076000E400000000000
000074000E800000000000
0000F8001D000000000000
0000F0001E000000000000
0001E0003C000000000000
0003C00038000000000000
0003000070000000000000
00060000E0000000000000
000C0000C0000000000000
ENDCHAR
STARTCHAR 0058
ENCODING 88
SWIDTH 1096 0
DWIDTH 57 0
BBX 79 42 10 1
BITMAP
000000007FC00000007E
00000003E030000001C0
0000000F001800000700
0000003C001C00001C00
000000F8000E00003000
000001E0000E0000E000
000003C0000F00018000
00000780000F00070000
00000700000F000C0000
00000F00000F00380000
00000E00000F00600000
00000E00400F01800000
00000E00C00F03000000
00000701800E04000000
00000786000E18000000
000001F8001E20000000
00000000003EC0000000
00000000003F00000000
00000000007E00000000
000FE000007C00000000
0078180000F800000000
01E0040000F800000000
0380020001F800000000
0700020003F000000000
0C00020007F000000000
180202000BF000000000
3004020013F000000000
6008020023E000000000
60080400C3E000000000
4008080103E000000000
C00C100203E000000000
8007E00403C000000000
8000001803C000000000
8000002003C000000000
8000004003C000000000
8000018003C000000000
4000020001C000000000
40000C0001C000000000
2000300000E000000000
1000C00000E060000000
0C0700000070C0000000
03FC0000001F00000000
ENDCHAR
STARTCHAR 0059
ENCODING 89
SWIDTH 1076 0
DWIDTH 56 0
BBX 68 54 12 -13
BITMAP
000000000003C00000
00003FC0000F800030
0001E038003E000060
0007800400FC0000C0
001E000003F8000180
003C000005F0000700
007800001BE0000E00
00F000002FC0001C00
00E000005F00003800
01E00001BE00007000
01C000027C0000E000
01C0000CF80001E000
01C00031F00003C000
01C00043E000078000
00C00187C0000F8000
00E0060FC0001F0000
0070380F80007E0000
001FC01F0000BE0000
0000003E00013C0000
0000007C0002780000
0000007C0004F80000
000000F80009F00000
000000F00011E00000
000000F00023E00000
000001E00047C00000
000001E00087800000
000001E0010F800000
000001C0021F000000
000001C00C3E000000
000000C0107E000000
000000C0607C000000
0000006180F8000000
001FC03E01F8000000
00F0300001F0000000
0380080003E0000000
07000C0007E0000000
0C0004000FC0000000
180004000F80000000
300004001F00000000
700004003E00000000
600008007C00000000
400010007800000000
C0086000F000000000
80078001E000000000
80000003C000000000
800000070000000000
8000000E0000000000
800000180000000000
400000700000000000
400001C00000000000
200007000000000000
18001C000000000000
0600F0000000000000
01FF00000000000000
ENDCHAR
STARTCHAR 005A
ENCODING 90
SWIDTH 865 0
DWIDTH 45 0
BBX 62 40 4 1
BITMAP
00000001FFFFFFFC
0000000FFFFFFFE0
00000060000000C0
0000018000000300
0000060000000E00
0000080000003800
000010000000E000
000020000003C000
0000200000078000
00004000801E0000
00004001007C0000
0000400200F00000
0000400C03E00000
0000601807800000
000030E01F000000
00000F807E000000
00000000F8000000
00000003F0000000
00000007C0000000
0000001F80000000
0000003E00000000
000000F800000000
000001F000000000
000007C00FC00000
00000F0070600000
00003E00C0100000
0000780300080000
0000E00200080000
0003C00000080000
0007000000080000
001C000000100000
0030000000300000
0060000000600000
0080000001C00000
030000001F800000
040FFFFFFF000000
09FFFFFFFE000000
3FFFFFFFF8000000
7FFFFFFFC0000000
C0001FFC00000000
ENDCHAR
STARTCHAR 005C
ENCODING 92
SWIDTH 384 0
DWIDTH 20 0
BBX 10 37 7 1
BITMAP
F000
F000
7800
7800
7800
7800
7800
7800
3C00
3C00
3C00
3C00
3C00
3C00
1E00
1E00
1E00
1E00
1E00
1F00
0F00
0F00
0F00
0F00
0F00
0780
0780
0780
0780
0780
0780
03C0
03C0
03C0
03C0
03C0
03C0
ENDCHAR
STARTCHAR 005F
ENCODING 95
SWIDTH 615 0
DWIDTH 32 0
BBX 32 1 0 1
BITMAP
FFFFFFFF
ENDCHAR
STARTCHAR 0060
ENCODING 96
SWIDTH 250 0
DWIDTH 13 0
BBX 7 9 21 20
BITMAP
F8
F8
78
78
38
18
0C
0C
06
ENDCHAR
STARTCHAR 0061
ENCODING 97
SWIDTH 346 0
DWIDTH 18 0
BBX 25 18 3 0
BITMAP
001FF800
0071F000
00E3F080
01C3E180
03C7C100
0787C300
0F0F8200
1E0F8400
3E1F0C00
3C3E0800
787E1000
787C2000
F0FC6000
F1F8C000
E3708000
E2710000
64360000
38380000
ENDCHAR
STARTCHAR 0062
ENCODING 98
SWIDTH 307 0
DWIDTH 16 0
BBX 21 35 5 0
BITMAP
000078
0000F0
0000F0
0001E0
0003C0
0003C0
000780
000780
000F00
001F00
001E00
003C00
003C00
007800
00F800
00F000
01E600
01EE00
03D200
07D200
07A608
0FA618
0F2630
1E2C20
3E3CC0
3C3D80
7C3E00
787000
787000
F0E000
F0C000
E18000
E30000
660000
780000
ENDCHAR
STARTCHAR 0063
ENCODING 99
SWIDTH 250 0
DWIDTH 13 0
BBX 20 18 3 1
BITMAP
000F00
007900
00E100
03EF10
07DE20
0F9E60
0F0CC0
1E0080
3E0100
3C0200
780400
780800
F01000
F02000
E04000
E08000
630000
3C0000
ENDCHAR
STARTCHAR 0064
ENCODING 100
SWIDTH 346 0
DWIDTH 18 0
BBX 30 35 3 0
BITMAP
0000003C
00000078
00000078
000000F0
000000E0
000001E0
000003C0
000003C0
00000780
00000F00
00000F00
00001E00
00001C00
00003C00
00007800
00007800
0000F000
003DE000
00F5E000
01E7C000
03C78000
07878200
0F8F0600
1F0F0400
1E1E0C00
3E3C1800
7C3C1000
78782000
78704000
F0F08000
F1F10000
E3730000
E6760000
6C7C0000
78300000
ENDCHAR
STARTCHAR 0065
ENCODING 101
SWIDTH 250 0
DWIDTH 13 0
BBX 20 18 2 1
BITMAP
000F00
003C80
007080
01E180
03C310
078710
0F0E20
1E1840
3E7080
3F8100
7C0200
780400
F00800
F01000
E06000
E0C000
630000
3C0000
ENDCHAR
STARTCHAR 0066
ENCODING 102
SWIDTH 250 0
DWIDTH 13 0
BBX 33 52 -6 -18
BITMAP
0000000780
0000000780
0000000F00
0000001F00
0000001E00
0000003C00
0000003C00
0000007800
000000F800
000000F000
000001E000
000003E000
000003C000
000007C000
0000078000
00000F0000
00001F0000
00001E0000
00003E0000
00003C0000
0001781000
0003F82000
0003F06000
0003F0C000
0003E18000
0007E30000
000FE40000
000F380000
001E200000
003E200000
003C200000
0078200000
00F8600000
00F0600000
01E0400000
03E0C00000
03C0C00000
0780800000
0F81800000
0F03000000
1F03000000
1E06000000
3C04000000
7C0C000000
7818000000
F030000000
F060000000
E0C0000000
E180000000
E300000000
6600000000
3800000000
ENDCHAR
STARTCHAR 0067
ENCODING 103
SWIDTH 326 0
DWIDTH 17 0
BBX 35 35 -9 -17
BITMAP
000003DE00
00001E7E00
0000387C00
0000707800
0001E0F820
0003E1F040
0003C1E0C0
000783E180
000F07C100
000F078200
001E0F8400
001E1F0800
003C3E1000
003C7E2000
0038FCC000
0039F98000
001E7E0000
0008FC0000
0000F00000
0001E00000
0007C00000
001F800000
0077800000
00C7000000
030E000000
0C0E000000
181C000000
3038000000
6038000000
4070000000
C0E0000000
81C0000000
8380000000
C600000000
7C00000000
ENDCHAR
STARTCHAR 0068
ENCODING 104
SWIDTH 365 0
DWIDTH 19 0
BBX 29 35 0 1
BITMAP
000003C0
00000780
00000F80
00000F00
00001E00
00001E00
00003C00
00007C00
00007800
0000F000
0001F000
0001E000
0003C000
0003C000
00078000
000F0000
000F0000
001E3C00
003E7E00
003C9E00
007B3C18
007C3C10
00F87820
01F0F860
01E1F0C0
03C3E080
0787C100
07878200
0F0F8200
1E0F0400
1C1E0800
3C1C1000
381C2000
701CC000
F00F0000
ENDCHAR
STARTCHAR 0069
ENCODING 105
SWIDTH 192 0
DWIDTH 10 0
BBX 17 28 4 0
BITMAP
000700
000F80
000F80
000F80
000700
000000
000000
000000
000000
000000
000000
01E000
01C000
03C000
078080
078100
0F0200
1E0600
1E0400
3C0800
3C1000
782000
F04000
F08000
E10000
E20000
E40000
780000
ENDCHAR
STARTCHAR 006A
ENCODING 106
SWIDTH 192 0
DWIDTH 10 0
BBX 37 46 -18 -18
BITMAP
0000000070
00000000F8
00000000F8
00000000F8
0000000070
0000000000
0000000000
0000000000
0000000000
0000000000
0000000000
0000000000
0000001E00
0000003C00
0000007808
0000007818
000000F030
000001E020
000001E040
000003C080
0000078100
0000078200
00000F0400
00001E0800
00001E1000
00003C2000
000078C000
0000790000
0000F60000
0000F80000
0001E00000
0007C00000
001FC00000
00F3800000
01C7800000
0707000000
0E0E000000
181E000000
301C000000
6038000000
4070000000
C0E0000000
81C0000000
8380000000
C600000000
7800000000
ENDCHAR
STARTCHAR 006B
ENCODING 107
SWIDTH 326 0
DWIDTH 17 0
BBX 27 35 0 0
BITMAP
00000780
00000780
00000F00
00001E00
00001E00
00003C00
00007C00
00007800
0000F000
0000F000
0001E000
0003C000
0003C000
00078000
00078000
000F0000
001E0000
001E3000
003CF800
003F3800
007E3820
00F87040
00F070C0
01E0E180
03E18100
03CE0200
07F80400
078E0800
0F0E1000
1E1E2000
1E3C4000
3C3C8000
3C390000
783A0000
F03C0000
ENDCHAR
STARTCHAR 006C
ENCODING 108
SWIDTH 211 0
DWIDTH 11 0
BBX 22 35 4 0
BITMAP
00003C
000078
000078
0000F0
0000F0
0001E0
0003C0
0003C0
000780
000F00
000F00
001E00
001E00
003C00
007800
007800
00F000
00F000
01E000
03C000
03C000
078100
0F0300
0F0600
1E0400
1E0800
3C1000
383000
786000
70C000
F18000
E30000
E60000
4C0000
700000
ENDCHAR
STARTCHAR 006D
ENCODING 109
SWIDTH 519 0
DWIDTH 27 0
BBX 35 18 1 1
BITMAP
003C787800
0079F9FC00
007A7B3800
00F47E7820
01E8FCF040
01F0F8F0C0
03E1F1E080
03E1E3E100
07C3E3C200
0783C78600
0F07870C00
1E0F0F0800
1E0F0E1000
3C1E1C2000
3C1E1C6000
783C18C000
F03C098000
F0780E0000
ENDCHAR
STARTCHAR 006E
ENCODING 110
SWIDTH 346 0
DWIDTH 18 0
BBX 27 18 0 1
BITMAP
003E3C00
003CDC00
007D1C00
007A3C00
00F47820
01F87860
01F0F040
03E1E080
03C3C100
0787C200
0F878400
0F0F0800
1E0F0800
1E1E1000
3C1E2000
7C1C4000
781C8000
F80F0000
ENDCHAR
STARTCHAR 006F
ENCODING 111
SWIDTH 288 0
DWIDTH 15 0
BBX 22 18 3 0
BITMAP
001E00
007100
01E100
03C100
078304
0FB308
1F7210
1E7660
3C3F80
7C1C00
783800
783000
F06000
F0C000
E18000
E30000
660000
3C0000
ENDCHAR
STARTCHAR 0070
ENCODING 112
SWIDTH 346 0
DWIDTH 18 0
BBX 34 37 -8 -12
BITMAP
000001C000
000003C000
0000078000
0000078000
00000F0000
00001F0000
00001E7000
00003DB800
00003F3800
00007E3840
0000F838C0
0000F87880
0001F07180
0003E0F100
0003C0E200
000781E400
000F83C400
000F83C800
001FC79000
001E4F2000
003C3E4000
007C3F8000
007C780000
00F7C00000
01F0000000
01E0000000
03C0000000
03C0000000
0780000000
0F00000000
0F00000000
1E00000000
3C00000000
3C00000000
7800000000
7000000000
F000000000
ENDCHAR
STARTCHAR 0071
ENCODING 113
SWIDTH 346 0
DWIDTH 18 0
BBX 29 38 -1 -20
BITMAP
0001CF80
00072F00
001E3E00
003C3E00
00787C18
00F07830
01E07820
03C0F040
07C0E0C0
0781E080
0F01C100
0F038200
1E078400
1E0F0800
1E1E1000
1C7F2000
1CFF4000
0F7F8000
00F90000
00F90000
01F10000
03E10000
03C10000
07C30000
0F820000
0F020000
1E040000
3E040000
3C080000
78080000
70100000
70200000
E0600000
E0C00000
C1800000
C3000000
44000000
38000000
ENDCHAR
STARTCHAR 0072
ENCODING 114
SWIDTH 269 0
DWIDTH 14 0
BBX 17 21 7 0
BITMAP
0C0000
0C0000
1C0000
19E000
3FE000
3FE000
33C080
07C180
078300
0F0200
1E0400
1E0C00
3C1800
781000
782000
F04000
F08000
E10000
E20000
E40000
780000
ENDCHAR
STARTCHAR 0073
ENCODING 115
SWIDTH 250 0
DWIDTH 13 0
BBX 21 21 3 1
BITMAP
003800
007800
007000
00E000
01C000
03C000
03C000
04C008
0CE010
00E020
00E040
00E080
00E100
00E600
71F800
51E000
8FC000
87C000
878000
CF0000
7C0000
ENDCHAR
STARTCHAR 0074
ENCODING 116
SWIDTH 211 0
DWIDTH 11 0
BBX 21 30 4 0
BITMAP
0001E0
0003C0
0007C0
000780
000F00
000F00
001E00
07FFF8
003C00
007800
00F000
00F000
01E000
03E000
03C000
078100
078100
0F0200
1E0600
1E0C00
3C0800
3C1000
782000
704000
F08000
E10000
C20000
C40000
C80000
F00000
ENDCHAR
STARTCHAR 0075
ENCODING 117
SWIDTH 365 0
DWIDTH 19 0
BBX 24 18 4 0
BITMAP
01E1F0
03E1E0
03C3E0
0783C1
078783
0F0782
0E0F04
1E1E0C
1C1E18
383C10
787C20
70F840
60F080
E17180
C26300
C46200
586800
603000
ENDCHAR
STARTCHAR 0076
ENCODING 118
SWIDTH 307 0
DWIDTH 16 0
BBX 21 18 5 0
BITMAP
000180
01C780
03C780
078F00
070F08
0F1E10
1E1E20
1E1C40
3C1C80
383F00
783000
706000
E0E000
E1C000
C30000
C60000
CC0000
700000
ENDCHAR
STARTCHAR 0077
ENCODING 119
SWIDTH 461 0
DWIDTH 24 0
BBX 31 18 4 1
BITMAP
000001C0
01E0F1C0
03C1F3C0
03C1E382
0783C782
0707C784
0F078708
1E0F0730
1C1F07C0
3C3E0C00
383C1800
707C3000
70F82000
E1704000
E2708000
C4630000
48660000
70380000
ENDCHAR
STARTCHAR 0078
ENCODING 120
SWIDTH 269 0
DWIDTH 14 0
BBX 26 24 -3 -5
BITMAP
000000C0
000001C0
00038200
00070400
000F0800
000E1040
001E2080
003C6180
003CC300
00388200
00790400
00730800
00760800
00FC1000
00FC2000
00F84000
00F08000
00E10000
00E60000
01F80000
03000000
C6000000
D8000000
E0000000
ENDCHAR
STARTCHAR 0079
ENCODING 121
SWIDTH 365 0
DWIDTH 19 0
BBX 36 36 -8 -18
BITMAP
00003C1E00
00007C3E00
0000783C00
0000F87810
0000F0F820
0001E0F060
0003E1F040
0003C1E080
000783C180
000F87C300
000F0F8600
001E0F0400
001C1F0800
001C3E1000
00387E6000
0038FC8000
0019390000
001E7E0000
0000780000
0000E00000
0001E00000
0003C00000
001FC00000
0063800000
0187000000
0707000000
0E0E000000
1C0C000000
381C000000
7038000000
6030000000
C060000000
C0C0000000
C180000000
6700000000
3C00000000
ENDCHAR
STARTCHAR 007A
ENCODING 122
SWIDTH 288 0
DWIDTH 15 0
BBX 33 36 -10 -19
BITMAP
000003C000
00000FE000
00003FE000
000079E080
0000E1E180
000081E100
000003C300
000003C200
0000078400
0000070800
00000F1000
00000E1000
00001C2000
0000384000
0000608000
001FC30000
001F840000
0000D80000
0000F00000
0001E00000
0007E00000
001DE00000
0071E00000
01C3C00000
0703C00000
0E03C00000
1C07800000
380F800000
700F000000
601E000000
C03C000000
8078000000
80F0000000
81E0000000
C780000000
7E00000000
ENDCHAR
STARTCHAR 007B
ENCODING 123
SWIDTH 288 0
DWIDTH 15 0
BBX 14 49 4 -6
BITMAP
00FC
03FC
03E0
07C0
07C0
07C0
07C0
07C0
0780
0780
0780
0F80
0F80
0F80
0F80
0F80
0F00
0F00
0F00
1F00
1F00
1F00
1E00
3C00
F000
3C00
3E00
3E00
3E00
3E00
3E00
3E00
3E00
3C00
3C00
7C00
7C00
7C00
7C00
7C00
7C00
7800
7800
F800
F800
F800
FC00
7F00
3F00
ENDCHAR
STARTCHAR 007C
ENCODING 124
SWIDTH 250 0
DWIDTH 13 0
BBX 4 37 7 1
BITMAP
F0
F0
F0
F0
F0
F0
F0
F0
F0
F0
F0
F0
F0
F0
F0
F0
F0
F0
F0
F0
F0
F0
F0
F0
F0
F0
F0
F0
F0
F0
F0
F0
F0
F0
F0
F0
F0
ENDCHAR
STARTCHAR 007D
ENCODING 125
SWIDTH 288 0
DWIDTH 15 0
BBX 14 49 2 -6
BITMAP
03F0
07F8
00F8
0078
0078
0078
00F8
00F8
00F8
00F8
00F8
00F0
00F0
00F0
01F0
01F0
01F0
01F0
01F0
01F0
01E0
01E0
01F0
00F0
003C
00F0
01E0
03E0
03C0
03C0
03C0
07C0
07C0
07C0
07C0
07C0
0780
0780
0780
0F80
0F80
0F80
0F80
0F80
0F00
0F00
3F00
FE00
FC00
ENDCHAR
STARTCHAR 00A0
ENCODING 160
SWIDTH 500 0
DWIDTH 26 0
BBX 0 0 0 0
BITMAP
ENDCHAR
STARTCHAR 00A1
ENCODING 161
SWIDTH 288 0
DWIDTH 15 0
BBX 28 39 7 0
BITMAP
000000E0
000001F0
000003F0
000003F0
000003E0
000001C0
00000000
00000000
00000000
00000400
00000400
00000800
00001800
00003000
00006000
0000E000
0001C000
0001C000
00038000
00070000
000F0000
001E0000
003E0000
007C0000
00F80000
01F80000
03F00000
03F00000
07E00000
0FC00000
1FC00000
1F800000
3F000000
7E000000
7C000000
F8000000
F0000000
E0000000
C0000000
ENDCHAR
STARTCHAR 00A2
ENCODING 162
SWIDTH 403 0
DWIDTH 21 0
BBX 20 30 8 -5
BITMAP
000010
000030
000060
000040
0000C0
000180
000180
000700
003B00
00F100
01EF10
03DE20
079E60
0F0CC0
1F0180
3E0100
3C0200
780400
780800
F01000
F02000
E04000
E18000
630000
3C0000
300000
200000
400000
C00000
800000
ENDCHAR
STARTCHAR 00A3
ENCODING 163
SWIDTH 1173 0
DWIDTH 61 0
BBX 66 51 8 -4
BITMAP
000000000000000780
000000000000001FC0
000000007FC0003FC0
00000007803800F840
0000001C000701F040
00000038000103E080
000000E00002078080
000001C000060F8100
0000038000041F0100
0000030000083E0200
0000070000187C0400
000007000030F80C00
00000E000021F01800
00000E000043E03000
00000E0000C3E06000
00000E000087C18000
00000600010F830000
00000600021F0E0000
00000300043E180000
00000100087E700000
0000008010FCC00000
0000006060FF000000
00000018C1F8000000
00000007FFF0000000
0000000E07E0000000
0000001C0FC0000000
000000700F80000000
000001C01F80000000
00000F003F00000000
000078003E00000000
001FFFFFFFFFFF0000
00000000FC00000000
00000000F800000000
00000001F000000000
00000003E000000000
00000007C000000000
03FE000F0000000000
1FFFE01E0000000000
3FFFFC3C0000000000
700FFFF00000000000
4000FFE00000000000
80003FF00000000000
80000FFC0000000000
800018FF0000000000
4000603F8000000000
3803800FE000000000
0FFC0007F800000000
00000001FE00000000
000000007F80000000
000000000FF8000000
0000000001FFF80000
ENDCHAR
STARTCHAR 00A4
ENCODING 164
SWIDTH 500 0
DWIDTH 26 0
BBX 18 19 6 10
BITMAP
4000C0
E001C0
F7FBC0
7FFF80
1E1E00
380700
380700
300380
700380
700380
700380
300300
380700
1C0E00
3FFF00
77FB80
E3F1C0
C001C0
000080
ENDCHAR
STARTCHAR 00A5
ENCODING 165
SWIDTH 826 0
DWIDTH 43 0
BBX 36 40 25 1
BITMAP
3FFFC1FFF0
07FE001F80
01F8001E00
01F8001C00
00F8001800
00F8003000
00FC006000
007C00E000
007C00C000
007C018000
007E030000
003E070000
003E060000
003E0C0000
003F180000
001F380000
1FFF3FF800
1FFF7FF000
3FFFFFF000
000FC00000
000F800000
000F800000
000F000000
7FFFFFE000
FFFFFFC000
001E000000
003E000000
003E000000
003C000000
007C000000
007C000000
007C000000
0078000000
00F8000000
00F8000000
00F8000000
01F8000000
01F8000000
07FC000000
7FFF800000
ENDCHAR
STARTCHAR 00A8
ENCODING 168
SWIDTH 192 0
DWIDTH 10 0
BBX 11 3 16 20
BITMAP
70C0
F1E0
70C0
ENDCHAR
STARTCHAR 00A9
ENCODING 169
SWIDTH 884 0
DWIDTH 46 0
BBX 39 39 6 0
BITMAP
0003FF8000
000F83E000
0038003800
00E0000E00
01C0000300
0380000180
07003FC0C0
0E01FFF060
1C03FFFC70
1807C03830
380F001018
301E000018
703C00001C
707800000C
607000000C
E07000000E
E0E000000E
E0E000000E
E0E000000E
E0E000000E
E0E000000E
E0E000000E
E0E000000E
F0F000000C
70F000001C
787800001C
783C006038
3C3F00E038
3C1FFFE070
1E07FF80F0
0F01FE01E0
0F800003C0
07C00007C0
03F0001F80
01FE007E00
007FFFFC00
003FFFF000
0007FFC000
0000380000
ENDCHAR
STARTCHAR 00AA
ENCODING 170
SWIDTH 480 0
DWIDTH 25 0
BBX 22 23 5 17
BITMAP
00FE3C
03FF38
07FFB8
0F81F8
0F00F8
1E0078
1E0078
3C0078
3C0078
3C0070
3C0070
3C00F0
3E00F0
1E03F0
1F8FF0
0FFEF0
07FCF0
01F000
000000
000000
7FFFE0
7FFFE0
FFFFE0
ENDCHAR
STARTCHAR 00AB
ENCODING 171
SWIDTH 480 0
DWIDTH 25 0
BBX 18 18 10 1
BITMAP
00E1C0
03C780
078F00
0E1C00
183000
70E000
F1E000
F0E000
70E000
70E000
306000
306000
387000
183000
1C3800
0C1800
060C00
020400
ENDCHAR
STARTCHAR 00AC
ENCODING 172
SWIDTH 596 0
DWIDTH 31 0
BBX 25 12 5 10
BITMAP
FFFFFF80
FFFFFF80
FFFFFF80
FFFFFF80
00000380
00000380
00000380
00000380
00000380
00000380
00000380
00000380
ENDCHAR
STARTCHAR 00AE
ENCODING 174
SWIDTH 884 0
DWIDTH 46 0
BBX 39 39 6 0
BITMAP
0003FF8000
000F83E000
0038003800
00E0000E00
01C0000300
0380000180
07000000C0
0E01FF0060
1C01FFC070
1801C3E030
3801C0F018
3001C0F018
700380701C
700380700C
600380F00C
E00380E00E
E00381E00E
E00383C00E
E003FF800E
E003FE000E
E007F8000E
E0073C000E
E0073C000E
F0071E000C
70070E001C
78070F001C
7807078038
3C0F078038
3C0F03C070
1E0E01C0F0
0F0E01E1E0
0F800003C0
07C00007C0
03F0001F80
01FE007E00
007FFFFC00
003FFFF000
0007FFC000
0000380000
ENDCHAR
STARTCHAR 00AF
ENCODING 175
SWIDTH 269 0
DWIDTH 14 0
BBX 15 2 16 20
BITMAP
1FFE
FFF8
ENDCHAR
STARTCHAR 00B0
ENCODING 176
SWIDTH 192 0
DWIDTH 10 0
BBX 9 9 17 19
BITMAP
1E00
7F00
6380
C180
C180
C180
6380
7F00
1C00
ENDCHAR
STARTCHAR 00B1
ENCODING 177
SWIDTH 557 0
DWIDTH 29 0
BBX 24 22 3 2
BITMAP
003C00
003C00
003C00
003C00
003C00
003C00
FFFFFF
FFFFFF
FFFFFF
003C00
003C00
003C00
003C00
003C00
003C00
003C00
000000
000000
000000
FFFFFF
FFFFFF
FFFFFF
ENDCHAR
STARTCHAR 00B4
ENCODING 180
SWIDTH 115 0
DWIDTH 6 0
BBX 8 6 16 21
BITMAP
0F
0E
1C
38
60
C0
ENDCHAR
STARTCHAR 00B5
ENCODING 181
SWIDTH 576 0
DWIDTH 30 0
BBX 25 34 4 -11
BITMAP
F801F000
F801F000
F801F000
F801F000
F801F000
F801F000
F801F000
F801F000
F801F000
F801F000
F801F000
F801F000
F801F000
F803F000
F803F000
F803F000
F807F000
F805F080
F80DF080
F809F080
BC18F180
BFF0FF00
9FE07F00
8FC03E00
C0000000
C0000000
C0000000
E0000000
E0000000
F0000000
F0000000
F0000000
F0000000
F0000000
ENDCHAR
STARTCHAR 00B6
ENCODING 182
SWIDTH 557 0
DWIDTH 29 0
BBX 27 37 5 1
BITMAP
00FFFFE0
03FFFFE0
0F000000
1C000000
38038700
30038600
70038E00
60038E00
E0038E00
E0038E00
E0038E00
E0030E00
E0070E00
E0070C00
70071C00
78071C00
3C071C00
1E071C00
0FFF1C00
03FE1C00
000E1C00
000E1800
000E1800
000E3800
000E3800
000E3800
000E3800
000C3800
001C3800
001C3800
001C3000
001C7000
001C7000
001C7000
001C7000
00187000
00387000
ENDCHAR
STARTCHAR 00B7
ENCODING 183
SWIDTH 230 0
DWIDTH 12 0
BBX 6 6 11 8
BITMAP
38
7C
FC
FC
F8
70
ENDCHAR
STARTCHAR 00B8
ENCODING 184
SWIDTH 134 0
DWIDTH 7 0
BBX 7 8 -4 -7
BITMAP
02
06
1E
0E
06
C6
CC
F0
ENDCHAR
STARTCHAR 00BA
ENCODING 186
SWIDTH 480 0
DWIDTH 25 0
BBX 20 23 5 17
BITMAP
00FF00
03FF80
07FFC0
0F81E0
0E00F0
1C00F0
3C0070
3C0070
380070
380070
3800F0
3C00E0
3C01E0
3E03C0
1F8FC0
0FFF80
07FF00
03FC00
000000
000000
FFFFE0
FFFFE0
FFFFC0
ENDCHAR
STARTCHAR 00BB
ENCODING 187
SWIDTH 480 0
DWIDTH 25 0
BBX 17 18 10 0
BITMAP
081000
0C1800
060C00
060C00
030600
030600
038700
018300
018300
01C380
01C380
01C380
018300
070600
0E1C00
3C7800
F1E000
E1C000
ENDCHAR
STARTCHAR 00BF
ENCODING 191
SWIDTH 615 0
DWIDTH 32 0
BBX 32 40 9 0
BITMAP
0000000E
0000001F
0000001F
0000001F
0000001E
0000000C
00000000
000000E0
00000030
00000010
00000010
00000030
00000060
000000C0
00000700
00001E00
00007800
0001E000
00078000
001F0000
007E0000
01FC0000
03F80000
07F003C0
0FE00C20
1FC01810
3F801010
7F000010
7F000010
FE000020
FE000020
FC000040
FC0000C0
FC000180
7C000300
7C000400
3E001800
1F006000
0F838000
01FC0000
ENDCHAR
STARTCHAR 00C0
ENCODING 192
SWIDTH 1038 0
DWIDTH 54 0
BBX 68 60 8 -2
BITMAP
000000003C00000000
000000003E00000000
000000001E00000000
000000000E00000000
000000000E00000000
000000000700000000
000000000300000000
000000000100000000
000000000080000000
000000000000000000
000000000000000000
000000000000000000
000000000000000000
000000000000000000
000000000000000030
0000000000000001F0
000000000000000760
0000000000000018E0
0000000000000061C0
00000000000000C380
000000000000030700
000000000000060E00
0000000000000C1E00
000000000000303C00
000000000000607800
000000000000C0F000
00000000000181F000
00000000000301E000
00000000000603C000
00000000000C078000
0000000000180F8000
0000000000301F0000
0000000000603E0000
0000000000E03C0000
000FE00001C07C0000
007818000380F80000
01E00C000701F00000
03C004000E03F00000
070002001C03E00000
0E0002003C07C00000
1C000200780F800000
3806027FFFFF800000
380C0201E03F000000
70080403C07E000000
60080C07007E000000
6008080E00FC000000
E00C301C00F8000000
C003C01C01F8000000
C000003801F0000000
C000007001F0000000
C00000E003E0000000
400001C003C0000000
6000030003C0000000
60000E0003C0000000
30001C000380000000
180070000380000000
0703C0000180000000
01FF00000182000000
0000000000CC000000
000000000078000000
ENDCHAR
STARTCHAR 00C1
ENCODING 193
SWIDTH 1038 0
DWIDTH 54 0
BBX 69 59 8 -3
BITMAP
000000000700000000
000000000E00000000
000000001C00000000
000000003800000000
000000006000000000
000000018000000000
000000020000000000
000000000000000000
000000000000000000
000000000000000000
000000000000000000
000000000000000000
000000000000000000
000000000000000038
0000000000000001F0
000000000000000770
0000000000000018E0
0000000000000061C0
00000000000000C380
000000000000030700
000000000000060E00
0000000000000C1E00
000000000000103C00
000000000000607800
000000000000C07000
00000000000180F000
00000000000301E000
00000000000603C000
00000000000C078000
0000000000180F8000
0000000000301F0000
0000000000601E0000
0000000000E03E0000
000FE00001C07C0000
007818000380F80000
01E00C000701F00000
03C004000E01F00000
070002001C03E00000
0E0002003C07C00000
1C000200780F800000
3806027FFFFF800000
380C0201E03F000000
70080403C07E000000
60080C07007E000000
6008080E00FC000000
E00C301C00F8000000
C003C01C01F8000000
C000003801F0000000
C000007001F0000000
C00000E003E0000000
400001C003C0000000
6000030003C0000000
60000E0003C0000000
30001C000380000000
180070000380000000
0703C0000180000000
01FF00000182000000
0000000000C6000000
000000000078000000
ENDCHAR
STARTCHAR 00C2
ENCODING 194
SWIDTH 1038 0
DWIDTH 54 0
BBX 69 60 8 -3
BITMAP
000000000780000000
000000000F80000000
000000001F00000000
000000007300000000
00000000E300000000
000000018200000000
000000020200000000
0000000C0200000000
000000000000000000
000000000000000000
000000000000000000
000000000000000000
000000000000000000
000000000000000000
000000000000000038
0000000000000001F0
000000000000000770
0000000000000018E0
0000000000000061C0
00000000000000C380
000000000000030700
000000000000060E00
0000000000000C1E00
000000000000183C00
000000000000607800
000000000000C07000
00000000000180F000
00000000000301E000
00000000000603C000
00000000000C078000
0000000000180F8000
0000000000381F0000
0000000000701E0000
0000000000E03E0000
000FE00001C07C0000
007818000380F80000
01E00C000701F00000
03C004000F01F00000
070002001E03E00000
0E0002003C07C00000
1C000200380F800000
3806027FFFFF800000
380C0201E03F000000
70080403C07E000000
60080C07807E000000
6008080700FC000000
E00C300E00F8000000
C003C01C01F8000000
C000003801F0000000
C000007001F0000000
C00000E003E0000000
400001C003C0000000
6000038003C0000000
6000060003C0000000
30001C000380000000
180070000380000000
0703C0000180000000
01FF00000182000000
0000000000C6000000
000000000078000000
ENDCHAR
STARTCHAR 00C3
ENCODING 195
SWIDTH 1038 0
DWIDTH 54 0
BBX 67 57 8 -2
BITMAP
000000000080000000
000000000080000000
00000007FF00000000
0000000FFC00000000
000000000000000000
000000000000000000
000000000000000000
000000000000000000
000000000000000000
000000000000000000
000000000000000000
0000000000000000E0
0000000000000003E0
000000000000000CC0
000000000000003180
00000000000000C380
000000000000018700
000000000000060E00
0000000000000C1C00
000000000000183C00
000000000000307800
00000000000060F000
00000000000081E000
00000000000303E000
00000000000707C000
00000000000E078000
00000000001C0F8000
0000000000381F0000
0000000000703E0000
0000000000E07E0000
0000000000C0FC0000
000FE00001C0F80000
007818000381F00000
01E00C000703F00000
03C004000E07E00000
070002001C0FC00000
0E0002003C1FC00000
1C000200781F800000
3806027FFFFF000000
380C0201E03F000000
70080403C07E000000
60080C07007C000000
6008080E00FC000000
E00C301C00F8000000
C003C01C01F8000000
C000003801F0000000
C000007001E0000000
C00000E003E0000000
400001C003C0000000
6000030003C0000000
60000E0003C0000000
30001C000380000000
180070000380000000
0703C0000180000000
01FF00000184000000
000000000088000000
000000000070000000
ENDCHAR
STARTCHAR 00C4
ENCODING 196
SWIDTH 1153 0
DWIDTH 60 0
BBX 74 50 9 -3
BITMAP
00000000000000070380
000000000000000F07C0
00000000000000070380
00000000000000003000
0000000000000001F000
00000000000000076000
0000000000000018C000
00000000000000618000
00000000000001830000
00000000000003070000
000000000000040E0000
000000000000181C0000
00000000000030380000
00000000000060780000
000000000000C0F00000
00000000000181E00000
00000000000303C00000
00000000000603C00000
00000000000C07800000
0000000000380F000000
0000000000701E000000
0000000000603E000000
0000000000E07C000000
0000000001C078000000
000FE0000380F8000000
007838000701F0000000
01E00C000E03E0000000
038004001C07C0000000
070002003807C0000000
0C000200780F80000000
18000200701F80000000
3806027FFFFF00000000
30080603C07F00000000
6010040780FE00000000
60100C0700FC00000000
4010180E01FC00000000
C018701C01F800000000
8007C03803F000000000
8000007003F000000000
800000E003E000000000
800001C007C000000000
8000038007C000000000
C0000700078000000000
40000C00078000000000
60003800070000000000
30006000070000000000
0E038000030000000000
03FE0000030400000000
00000000018C00000000
0000000000F000000000
ENDCHAR
STARTCHAR 00C5
ENCODING 197
SWIDTH 1153 0
DWIDTH 60 0
BBX 74 56 9 -3
BITMAP
00000000000000000E00
00000000000000003F80
00000000000000003180
000000000000000060C0
000000000000000060C0
000000000000000060C0
00000000000000007180
00000000000000003F80
00000000000000001E00
0000000000000000E000
0000000000000003E000
000000000000000EC000
0000000000000039C000
00000000000000638000
00000000000001870000
000000000000030E0000
0000000000000C1E0000
000000000000181C0000
00000000000030380000
00000000000060700000
000000000000C0F00000
00000000000181E00000
00000000000303C00000
00000000000607C00000
00000000000C0F800000
0000000000180F000000
0000000000701F000000
0000000000603E000000
0000000000E07C000000
0000000001C0F8000000
000000000380F8000000
000FE0000701F0000000
007818000E03E0000000
01C004001C07E0000000
038006003C0FC0000000
0E000200780F80000000
1C060200701F00000000
180C027FFFFF00000000
30080203C07E00000000
7010040780FC00000000
60100C0700FC00000000
4018180E01F800000000
C00C701C01F000000000
C007C03803F000000000
8000007003E000000000
800000E003E000000000
800001C007C000000000
8000038007C000000000
C0000700078000000000
40000C00078000000000
60003800070000000000
30006000070000000000
0E038000030000000000
03FE0000030400000000
00000000018800000000
0000000000F000000000
ENDCHAR
STARTCHAR 00C6
ENCODING 198
SWIDTH 1557 0
DWIDTH 81 0
BBX 85 45 14 -1
BITMAP
0000000000000000E00000
0000000000000003E00000
000000000000000EC00000
000000000000003183FFC0
00000000000000C33F80F0
0000000000000306F80038
000000000000040FE00038
000000000000181F800038
000000000000203F000078
000000000000407C000070
00000000000180FC0001E0
00000000000301F80003C0
00000000000603F0000F00
00000000000C07F0007C00
0000000000180FE003E000
0000000000701FE07E0000
0000000000E01F7FC00000
0000000001C03E60000000
0000000003C07C60000000
000000000380FC60000000
001FC0000701F9FFF80000
007830000E03FF83F80000
01C018001C07FE00000000
03800C003807F800000000
06000400780FE000000000
0C000400F01F8000000000
18000400E03F0000000000
3804047FFFFE00007E0000
3008040780FC0001870000
6010080700F80006038000
6010180E01F80008018000
C010301C01F00010018000
C018603803E00000018000
C00F807007E00000010000
800000E007E00000030000
800001C007C00000060000
800001800FC00000040000
800003000FC00000080000
800006000FC00000100000
C0000C000FC00000600000
400038000FE00000800000
6000700007E00003000000
3000C00003F0000C000000
0E07800001FC0070000000
03FC0000003FFF80000000
ENDCHAR
STARTCHAR 00C7
ENCODING 199
SWIDTH 1038 0
DWIDTH 54 0
BBX 49 53 23 -10
BITMAP
00FF0000000000
03C1C000000000
0E007000000000
1C00180001FE00
380000001FC100
70000000FC0080
60000003F00080
E000000FC00080
C000003F000180
C00000FC000300
C00001F8000700
C00007E0000E00
C0000FC0001C00
40001F00003800
60007E0000E000
2000FC0003C000
1001F8000F0000
1803E0003C0000
0407C001F00000
030F801F800000
00CF01FC000000
003FFFC0000000
003C0000000000
003C0000780000
00780001FE0000
00F000060F0000
00E00018070000
00E00030070000
01C00040070000
01C00080070000
01800100060000
038001000E0000
038000000C0000
03000000180000
03000000180000
03000000300000
03000000600000
03000000C00000
01000003800000
01800006000000
0180000C000000
00C00030000000
006000E0000000
003C0700000000
001FF800000000
00180000000000
00380000000000
00700000000000
00180000000000
00180000000000
03180000000000
03100000000000
03E00000000000
ENDCHAR
STARTCHAR 00C8
ENCODING 200
SWIDTH 1000 0
DWIDTH 52 0
BBX 48 59 23 1
BITMAP
00003C000000
00003C000000
00001C000000
00001C000000
00000E000000
000006000000
000002000000
000001000000
000000000000
000000000000
000000000000
000000000000
000000000000
000000000000
000000000000
00FFE0000000
07C078000000
0E0008000000
1C0000007FF0
38000007E01E
7000001F0006
E000007C0007
E00001F00007
E00003E00007
E0000FC0000E
E0001F80000E
60001F000038
70003E000070
30003E0001C0
1C007C000700
0E007C007800
03E07C0F8000
003FFFF00000
00007C000000
00003C000000
00000E000000
00003FFE0000
0003F0000000
001F80000000
007E00000000
01FC00000000
07F0000FC000
0FE00030E000
1FC000C07000
3F8001007000
3F0002007000
7E0004007000
7E0000006000
FC000000E000
FC000000C000
FC0000018000
F80000030000
F80000060000
7C00000C0000
7C0000300000
3C0000C00000
1E0003000000
07C03C000000
00FFC0000000
ENDCHAR
STARTCHAR 00C9
ENCODING 201
SWIDTH 1000 0
DWIDTH 52 0
BBX 48 57 23 0
BITMAP
00000F000000
00000E000000
00001C000000
000038000000
000060000000
0000C0000000
000100000000
000000000000
000000000000
000000000000
000000000000
000000000000
000000000000
007FE0000000
03C078000000
0E0008000000
1C0000007FF0
38000007E01E
7000001F0006
E000007C0007
E00001F00007
E00003E00007
E0000FC0000E
E0001F80000E
60001F000038
70003E000070
30003E0001C0
1C007C000700
0E007C007800
03E07C0F8000
003FFFF00000
00007C000000
00003C000000
00000E000000
00003FFF0000
0003F0000000
001F80000000
007E00000000
01FC00000000
07F0000FC000
0FE00030E000
1FC000407000
3F8001807000
3F0003007000
7E0004007000
7E0000006000
FC000000E000
FC000000C000
FC0000018000
FC0000030000
FC0000060000
7C00000C0000
7C0000300000
3E0000400000
1F0003000000
07C03C000000
00FFC0000000
ENDCHAR
STARTCHAR 00CA
ENCODING 202
SWIDTH 1000 0
DWIDTH 52 0
BBX 48 58 23 0
BITMAP
00000F000000
00001F000000
00003F000000
000073000000
0000C2000000
000182000000
000202000000
000400000000
000000000000
000000000000
000000000000
000000000000
000000000000
000000000000
00FFE0000000
07C078000000
0E0008000000
1C0000007FF0
38000007E01E
7000001F0006
E000007C0007
E00001F00007
E00003E00007
E0000FC0000E
E0001F80000E
60001F000038
70003E000070
30003E0001C0
1C007C000700
0E007C007800
03E07C0F8000
003FFFF00000
00007C000000
00003C000000
00000E000000
00003FFF0000
0003F0000000
001F80000000
007E00000000
01FC00000000
07F0000FC000
0FE00030E000
1FC000407000
3F8001807000
3F0003007000
7E0004007000
7E0000006000
FC000000E000
FC000000C000
FC0000018000
F80000030000
F80000060000
7C00000C0000
7C0000300000
3C0000C00000
1E0003000000
07C03C000000
00FFC0000000
ENDCHAR
STARTCHAR 00CB
ENCODING 203
SWIDTH 1000 0
DWIDTH 52 0
BBX 48 53 23 0
BITMAP
000187000000
0003C7800000
000187000000
000000000000
000000000000
000000000000
000000000000
000000000000
000000000000
00FFE0000000
07C078000000
0E0008000000
1C0000007FF0
38000007E01E
7000001F0006
E000007C0007
E00001F00007
E00003E00007
E0000FC0000E
E0001F80000E
60001F000038
70003E000070
30003E0001C0
1C007C000700
0E007C007800
03E07C0F8000
003FFFF00000
00007C000000
00003C000000
00000E000000
00003FFF0000
0003F0000000
001F80000000
007E00000000
01FC00000000
07F0000FC000
0FE00030E000
1FC000407000
3F8001807000
3F0003007000
7E0004007000
7E0000006000
FC000000E000
FC000000C000
FC0000018000
F80000030000
F80000060000
7C00000C0000
7C0000300000
3C0000C00000
1E0003000000
07C03C000000
00FFC0000000
ENDCHAR
STARTCHAR 00CC
ENCODING 204
SWIDTH 750 0
DWIDTH 39 0
BBX 58 58 10 1
BITMAP
000000F800000000
0000007800000000
0000003800000000
0000003800000000
0000001C00000000
0000000C00000000
0000000C00000000
0000000600000000
0000000200000000
0000000000000000
0000000000000000
0000000000000000
0000000000000000
0000000000000000
00000000000001C0
0000000000000FC0
000000000003F300
0000000000FE0E00
000000000FC01800
000000007E003000
00000003F000E000
00000007C001E000
0000001F0003C000
0000003C00078000
0000007800070000
000000F0000E0000
000000F0001E0000
000001E0003C0000
000001C000780000
000003C000F00000
0000038001F00000
0000038003E00000
0000038003C00000
0000018007C00000
000001800F800000
000000C0DF000000
000FE03F1F000000
007C18003E000000
01E004007C000000
038006007C000000
07020200F8000000
0E040201F0000000
1C0C0203E0000000
38080203E0000000
30080407C0000000
7008080F80000000
600C301F00000000
E007C03E00000000
C000003C00000000
C000007800000000
C00000F000000000
C00001C000000000
4000078000000000
60000F0000000000
30001C0000000000
1800700000000000
0F03C00000000000
01FE000000000000
ENDCHAR
STARTCHAR 00CD
ENCODING 205
SWIDTH 750 0
DWIDTH 39 0
BBX 57 57 10 0
BITMAP
0000003C00000000
0000007800000000
0000007000000000
000000C000000000
0000038000000000
0000020000000000
0000000000000000
0000000000000000
0000000000000000
0000000000000000
0000000000000000
0000000000000180
0000000000000F80
000000000001F600
00000000003F0C00
0000000007F03800
000000003F007000
00000001F800E000
00000003C001C000
0000000F00038000
0000001E00070000
00000038000F0000
00000070001E0000
000000E0003C0000
000000E000380000
000001C000780000
0000018000F00000
0000038001E00000
0000030003E00000
0000030007C00000
0000030007800000
000003000F800000
000001001F000000
000001001F000000
00000083BE000000
000FE07C7C000000
007C18007C000000
01E00400F8000000
03800601F0000000
07020201F0000000
0E040203E0000000
1C0C0207C0000000
3808020780000000
3008040F80000000
7008081F00000000
600C303E00000000
E007C07C00000000
C000007800000000
C00000F000000000
C00001E000000000
C00003C000000000
4000070000000000
60000E0000000000
3000380000000000
1800700000000000
0E03C00000000000
01FE000000000000
ENDCHAR
STARTCHAR 00CE
ENCODING 206
SWIDTH 750 0
DWIDTH 39 0
BBX 58 58 10 0
BITMAP
0000001E00000000
0000003E00000000
0000007E00000000
000000EC00000000
0000018C00000000
0000030C00000000
0000040800000000
0000080800000000
0000000000000000
0000000000000000
0000000000000000
0000000000000000
0000000000000000
00000000000001C0
0000000000000FC0
000000000003F300
00000000007F0E00
000000000FE01800
000000007F003000
00000001F8007000
00000007E000E000
0000000F8001C000
0000003E00038000
0000007C00070000
00000078000F0000
000000F0001E0000
000001E0003C0000
000001E000780000
000003C000F80000
000003C001F00000
0000038001E00000
0000038003E00000
0000038007C00000
000001800F800000
000001800F800000
000000C0DF000000
000FE03F3E000000
007C18003E000000
01E004007C000000
03800600F8000000
07020200F8000000
0E040201F0000000
1C0C0203E0000000
38080207C0000000
30080407C0000000
7008080F80000000
600C301F00000000
E007C03E00000000
C000007C00000000
C00000F800000000
C00001F000000000
C00003C000000000
4000078000000000
60000F0000000000
30001C0000000000
1800700000000000
0F03C00000000000
01FE000000000000
ENDCHAR
STARTCHAR 00CF
ENCODING 207
SWIDTH 750 0
DWIDTH 39 0
BBX 58 53 10 0
BITMAP
0000030E00000000
0000039F00000000
0000030E00000000
0000000000000000
0000000000000000
0000000000000000
0000000000000000
0000000000000000
00000000000001C0
0000000000000FC0
000000000003F300
00000000007F0E00
0000000007E01C00
000000007F003800
00000001F8007000
00000007E000E000
0000000F8001C000
0000001E00038000
0000003C00070000
00000078000F0000
000000F0001E0000
000001E0003C0000
000001E000780000
000003C000F80000
000003C001F00000
0000038001E00000
0000038003E00000
0000038007C00000
000001800F800000
000001800F800000
000000C0DF000000
000FE03F3E000000
007C18003E000000
01E004007C000000
03800600F8000000
07020200F8000000
0E040201F0000000
1C0C0203E0000000
38080207C0000000
30080407C0000000
7008080F80000000
600C301F00000000
E007C03E00000000
C000007C00000000
C00000F800000000
C00001F000000000
C00003C000000000
4000078000000000
60000F0000000000
30001C0000000000
1800700000000000
0F03C00000000000
01FE000000000000
ENDCHAR
STARTCHAR 00D1
ENCODING 209
SWIDTH 1096 0
DWIDTH 57 0
BBX 85 56 8 0
BITMAP
0000000000200000000000
0000000000200000000000
00000001FFC00000000000
00000003FF800000000000
0000000000000000000000
0000000000000000000000
0000000000000000000000
0000000000000000000000
0000000000000000000000
0000000000000000000000
0000000000000000000000
0000000000000000000000
00000000000000C00001F8
0000000000000180000780
0000000000000380000E00
0000000000000700003C00
0000000000000E00007000
0000000000001E0000E000
0000000000003E0001C000
0000000000007C00078000
000000000000DC000F0000
000000000001BC000E0000
00000000000338001C0000
0000000000067800380000
000000000004F800700000
00000000000CF000E00000
000000000018F001C00000
000000000031F003800000
000000000061F003800000
0000000000E1E007000000
0000000001C3E00E000000
0000000003C3E01C000000
000FE0000783E038000000
007818000F03C030000000
01E004000E07C070000000
038006001C07C0E0000000
070002003807C1C0000000
1E04020070078380000000
1C080200F00F8300000000
38080201E00F8600000000
70100403C00F0C00000000
70100C07800F1C00000000
6010180F001F3800000000
E008301E001E3000000000
C007C03C001E6000000000
C0000078001EC000000000
C00000F0001DC000000000
C00001E0001F8000000000
400003C0003F0000000000
40000780003E0000000000
60000F00003E0000000000
30003C00003C0000000000
1800700000380000000000
0603C00000300000000000
01FE000000300000000000
0000000000200000000000
ENDCHAR
STARTCHAR 00D2
ENCODING 210
SWIDTH 807 0
DWIDTH 42 0
BBX 45 60 11 0
BITMAP
0000007C0000
0000007C0000
0000003C0000
0000001C0000
0000001C0000
0000000C0000
000000060000
000000020000
000000010000
000000000000
000000000000
000000000000
000000000000
000000000000
000000000000
000000000000
000000000000
000000000000
00000001FF80
0000001FF060
0000007F8030
000001FF0010
000007DC0008
00001FB80008
00003E700008
00007CE00008
0001F8E00008
0003F1C00008
0007E3800018
000FC7000018
001F87000010
003F0E000030
007E0E000030
00FC1C000060
01F81C000060
03F0180000C0
07E0380000C0
07C030000180
0FC030000380
1F8030000300
1F0030000700
3F0030000E00
3E0010001C00
7C0018003800
7C000FC03800
7C0000007000
F8000000E000
F8000001C000
F00000038000
F00000070000
F000000E0000
F000001C0000
F00000300000
700000E00000
700001C00000
380003000000
18000E000000
0C0038000000
0701C0000000
01FE00000000
ENDCHAR
STARTCHAR 00D3
ENCODING 211
SWIDTH 807 0
DWIDTH 42 0
BBX 45 57 11 0
BITMAP
0000000E0000
0000001C0000
000000380000
000000700000
000000E00000
000001800000
000002000000
000000000000
000000000000
000000000000
000000000000
000000000000
000000000000
000000000000
000000000000
00000001FF80
0000001FF060
0000007F8030
000001FF0010
000007DC0008
00001FB80008
00003E700008
00007CE00008
0001F8E00008
0003F1C00008
0007E3800018
000FC7000018
001F87000010
003F0E000030
007E0E000030
00FC1C000060
01F81C000060
03F0180000C0
07E0380000C0
07C030000180
0FC030000380
1F8030000300
1F0030000700
3F0030000E00
3E0010001C00
7C0018003800
7C000FC03800
7C0000007000
F8000000E000
F8000001C000
F00000038000
F00000070000
F000000E0000
F000001C0000
F00000300000
700000E00000
700001C00000
380003000000
18000E000000
0C0038000000
0701C0000000
01FE00000000
ENDCHAR
STARTCHAR 00D4
ENCODING 212
SWIDTH 807 0
DWIDTH 42 0
BBX 45 58 11 0
BITMAP
0000000F0000
0000001E0000
0000003E0000
000000660000
000000C40000
000003040000
000006040000
00000C040000
000000000000
000000000000
000000000000
000000000000
000000000000
000000000000
000000000000
000000000000
00000001FF80
0000001FF060
0000007F8030
000001FF0010
000007DC0008
00001FB80008
00003E700008
00007CE00008
0001F8E00008
0003F1C00008
0007E3800018
000FC7000018
001F87000010
003F0E000030
007E0E000030
00FC1C000060
01F81C000060
03F0180000C0
07E0380000C0
07C030000180
0FC030000380
1F8030000300
1F0030000700
3F0030000E00
3E0010001C00
7C0018003800
7C000FC03800
7C0000007000
F8000000E000
F8000001C000
F00000038000
F00000070000
F000000E0000
F000001C0000
F00000300000
700000E00000
700001C00000
380003000000
18000E000000
0C0038000000
0701C0000000
01FE00000000
ENDCHAR
STARTCHAR 00D5
ENCODING 213
SWIDTH 807 0
DWIDTH 42 0
BBX 45 55 11 1
BITMAP
000000008000
000000008000
000007FF0000
00001FFC0000
000000000000
000000000000
000000000000
000000000000
000000000000
000000000000
000000000000
000000000000
000000000000
00000003FF80
0000001FF060
0000007F8030
000001F70010
000007EC0008
00001F980008
00003F300008
00007C600008
0001F8E00008
0003F1C00008
0007E3800018
000FC7000018
001F87000010
003F0E000030
007E0E000030
00FC1C000060
01F81C000060
03F0180000C0
07E0380000C0
07C030000180
0FC030000380
1F8030000300
1F0030000700
3F0030000E00
3E0010001C00
7C0018003800
7C0007C03800
7C0000007000
F8000000E000
F8000001C000
F00000038000
F00000070000
F000000E0000
F000001C0000
F00000300000
700000E00000
700001C00000
380003000000
18000E000000
0C0038000000
0701C0000000
01FE00000000
ENDCHAR
STARTCHAR 00D6
ENCODING 214
SWIDTH 846 0
DWIDTH 44 0
BBX 48 46 11 0
BITMAP
000000000386
00000000078F
000000000386
000000000000
000000000000
00000003FF80
0000001FE060
0000007F8010
000001EE0010
000007FC0008
00001F300008
00003E600008
0000F8C00008
0001F1C00008
0003E3800008
000FC7000018
001F8E000018
003F0E000010
007E1C000030
00FC18000030
01F838000060
03F0300000E0
03E0300000C0
07E0700001C0
0FC060000180
0F8060000380
1F0060000700
3F0060000E00
3E0020000C00
7E0030001C00
7C000F803800
7C0000007000
F8000000E000
F8000001C000
F80000038000
F00000070000
F000000E0000
F000001C0000
F00000380000
700000600000
700001C00000
380003000000
18000E000000
0C0038000000
0701E0000000
01FE00000000
ENDCHAR
STARTCHAR 00D8
ENCODING 216
SWIDTH 807 0
DWIDTH 42 0
BBX 45 54 11 -6
BITMAP
000000000800
000000001000
000000001000
000000002000
000000004000
000000004000
00000007FF80
0000001F8060
0000007F0010
000001FF0010
000007DA0008
00001F340008
00003E640008
0000FCC80008
0001F1880008
0007E3900008
000FC3100018
001F86200018
003F0E200010
007E0C400030
00FC1CC00030
01F818800060
03F019800060
03F0310000C0
07E0320001C0
0FC032000180
0F8034000380
1F8034000700
3F0038000600
3E0038000E00
7E0030001C00
7C0070003800
7C0060007000
F800E000E000
F800C001C000
F80180038000
F00180070000
F001000E0000
F003001C0000
F00200380000
700600600000
700400C00000
380C03000000
180806000000
0C1818000000
0710E0000000
00FF00000000
002000000000
004000000000
004000000000
008000000000
008000000000
010000000000
010000000000
ENDCHAR
STARTCHAR 00D9
ENCODING 217
SWIDTH 1038 0
DWIDTH 54 0
BBX 63 62 18 -3
BITMAP
000000F000000000
000000F000000000
0000007000000000
0000007800000000
0000003800000000
0000001800000000
0000001800000000
0000000C00000000
0000000400000000
0000000200000000
0000000000000000
0000000000000000
0000000000000000
0000000000000000
0000000000000000
0000000000000000
0000000000000000
0000000000000006
000000000000000C
0000000001C0001C
0000000007C00038
001FF0001DC00070
00F00C00338000E0
03800600C70001C0
060000019E000380
0C0000023C000700
1800000C78000E00
30000019F0001C00
60000063C0003800
600000C780007000
C000018F0000F000
C000061E0001E000
C0000C7C0003C000
C00038F800078000
400061F0000F0000
600183F0001F0000
200707E0003E0000
183C0FC0007C0000
0FE01F8000F80000
00003F0001F00000
00007E0003F00000
0000FC0007E00000
0000F8000FC00000
0001F8001F800000
0003F0003F800000
0007E0007F000000
0007C000FE000000
000FC001BC000000
000F80037C000000
001F000678000000
001F000CF0000000
001E0018F0000000
001E0031E0000000
001C0061E0000000
001C00C1C0000000
001C0103C0000000
001C020380000000
000C0C0380000000
000E300380000000
0003C00181000000
00000001C6000000
0000000078000000
ENDCHAR
STARTCHAR 00DA
ENCODING 218
SWIDTH 1038 0
DWIDTH 54 0
BBX 63 59 18 -3
BITMAP
0000003C00000000
0000003800000000
0000007000000000
000000E000000000
0000018000000000
0000030000000000
0000040000000000
0000000000000000
0000000000000000
0000000000000000
0000000000000000
0000000000000000
0000000000000000
0000000000000000
0000000000000006
000000000000000C
0000000001C0001C
0000000007C00038
001FF0001DC00070
00F00C00338000E0
03800600C70003C0
060000019E000780
0C0000023C000F00
1800000C78001E00
30000019F0003C00
60000063C0007800
600000C780007000
C000018F0000F000
C000061E0001E000
C0000C7C0003C000
C00038F800078000
400061F0000F0000
600183F0001F0000
200707E0003E0000
183C0FC0007C0000
0FE01F8000F80000
00003F0001F00000
00007E0003F00000
0000FC0007E00000
0000F8000FC00000
0001F8001F800000
0003F0003F800000
0007E0007F000000
0007C000FE000000
000FC001BC000000
000F80037C000000
001F000678000000
001F000CF0000000
001E0018F0000000
001E0031E0000000
001C0061E0000000
001C00C1C0000000
001C0103C0000000
001C020380000000
000C0C0380000000
000E300380000000
0003C00181000000
00000001C6000000
0000000078000000
ENDCHAR
STARTCHAR 00DB
ENCODING 219
SWIDTH 1038 0
DWIDTH 54 0
BBX 63 60 18 -3
BITMAP
0000003C00000000
0000007C00000000
0000007C00000000
000001CC00000000
0000038800000000
0000060800000000
00000C0800000000
0000100000000000
0000000000000000
0000000000000000
0000000000000000
0000000000000000
0000000000000000
0000000000000000
0000000000000000
0000000000000006
000000000000000C
0000000001C0001C
0000000007C00038
001FF0001DC00070
00F00C00338000E0
03800600C70001C0
060000019E000380
0C0000023C000700
1800000C78000E00
30000019F0001C00
60000063C0003800
600000C780007000
C000018F0000F000
C000061E0001E000
C0000C7C0003C000
C00038F800078000
400061F0000F0000
600183F0001F0000
200707E0003E0000
183C0FC0007C0000
0FE01F8000F80000
00003F0001F00000
00007E0003F00000
0000FC0007E00000
0000F8000FC00000
0001F8001F800000
0003F0003F800000
0007E0007F000000
0007C000FE000000
000FC001BC000000
000F80037C000000
001F000678000000
001F000CF0000000
001E0018F0000000
001E0031E0000000
001C0061E0000000
001C00C1C0000000
001C0103C0000000
001C020380000000
000C0C0380000000
000E300380000000
0003C00181000000
00000001C6000000
0000000078000000
ENDCHAR
STARTCHAR 00DC
ENCODING 220
SWIDTH 1038 0
DWIDTH 54 0
BBX 63 49 18 -3
BITMAP
000000000000E1C0
000000000000F1E0
000000000000E1C0
0000000000000000
0000000000000006
000000000000000E
000000000080001C
0000000003C00038
000FF0000D800070
00F01C00330000E0
03800600460001C0
060000019C000380
0C00000238000700
1800000CE0000E00
30000019C0001C00
6000002380003800
600000C700007000
C000019E0000F000
C000063C0001E000
C0000C780003C000
C00018F800078000
400061F0000F0000
600183E0001F0000
200707C0003E0000
183C1F80007C0000
07E03F0000F80000
00003E0001F00000
00007E0003F00000
0000FC0003E00000
0001F80007C00000
0003F0000F800000
0007F0001F800000
0007E0003F000000
000FC0007E000000
001F8000BE000000
001F80017C000000
003F000278000000
003F000CF8000000
003E0010F0000000
003E0021E0000000
003E0041E0000000
003C0081C0000000
003C0103C0000000
003C0203C0000000
001C0C0380000000
001E300380000000
0007C00181000000
00000001C6000000
00000000F8000000
ENDCHAR
STARTCHAR 00DF
ENCODING 223
SWIDTH 288 0
DWIDTH 15 0
BBX 29 42 1 -7
BITMAP
000000E0
000003F0
00000798
00000F18
00001E18
00001E18
00003C18
00007810
00007830
0000F020
0001E060
0001E040
0003C0C0
000FC180
001F8300
001F0600
001F0C00
001E3800
003FE000
007F0000
00790000
00F90000
00F10000
01E10600
03E10C00
03C31000
07836000
0F838000
0F030000
1E0F0000
3E1E0000
3C6E0000
788C0000
F91C0000
F2180000
04300000
08700000
08600000
10C00000
11800000
16000000
08000000
ENDCHAR
STARTCHAR 00E0
ENCODING 224
SWIDTH 346 0
DWIDTH 18 0
BBX 28 30 3 0
BITMAP
000003C0
000003C0
000001C0
000001C0
000000E0
00000060
00000060
00000030
00000010
00000000
00000000
00000000
001FF800
0071F000
00E3F080
01C3E180
03C7C100
0787C300
0F0F8200
1E0F8400
3E1F0C00
3C3E0800
787E1000
787C2000
F0FC6000
F1F8C000
E3708000
E2710000
64360000
38380000
ENDCHAR
STARTCHAR 00E1
ENCODING 225
SWIDTH 346 0
DWIDTH 18 0
BBX 28 27 3 0
BITMAP
000000F0
000000E0
000001C0
00000380
00000600
00001800
00000000
00000000
00000000
001FF800
0071F000
00E3F080
01C3E180
03C7C100
0787C300
0F0F8200
1E0F8400
3E1F0C00
3C3E0800
787E1000
787C2000
F0FC6000
F1F8C000
E3708000
E2710000
64360000
38380000
ENDCHAR
STARTCHAR 00E2
ENCODING 226
SWIDTH 346 0
DWIDTH 18 0
BBX 28 28 3 0
BITMAP
000000F0
000001F0
000003F0
00000720
00000C20
00001860
00002040
00004040
00000000
00000000
001FF800
0071F000
00E3F080
01C3E180
03C7C100
0787C300
0F0F8200
1E0F8400
3E1F0C00
3C3E0800
787E1000
787C2000
F0FC6000
F1F8C000
E3708000
E2710000
64360000
38380000
ENDCHAR
STARTCHAR 00E3
ENCODING 227
SWIDTH 346 0
DWIDTH 18 0
BBX 29 26 3 1
BITMAP
00000008
00000008
00007FF0
0000FFE0
00000000
00000000
00000000
00000000
001FF800
0071F000
00E3F080
01C3E180
03C7C100
0787C300
0F0F8200
1E0F8400
3E1F0C00
3C3E1800
787E1000
787C2000
F0FC6000
F1F8C000
E3708000
E2710000
64360000
38380000
ENDCHAR
STARTCHAR 00E4
ENCODING 228
SWIDTH 346 0
DWIDTH 18 0
BBX 25 23 3 0
BITMAP
00038700
0007CF00
00038700
00000000
00000000
001FF800
0071F000
00E3F080
01C3E180
03C7C100
0787C300
0F0F8200
1E0F8400
3E1F0C00
3C3E0800
787E1000
787C2000
F0FC6000
F1F8C000
E3708000
E2710000
64360000
38380000
ENDCHAR
STARTCHAR 00E5
ENCODING 229
SWIDTH 346 0
DWIDTH 18 0
BBX 25 28 3 0
BITMAP
0001E000
0003F800
00071800
00060C00
00060C00
00060C00
00031800
0003F800
0000E000
00000000
001FF000
0067E000
01C7E180
0387C100
0787C300
0F078600
1E0F0400
1E0F0C00
3C1E1800
7C3E1000
783C2000
78786000
F0F8C000
F1F08000
E3710000
E2620000
64240000
38380000
ENDCHAR
STARTCHAR 00E6
ENCODING 230
SWIDTH 538 0
DWIDTH 28 0
BBX 35 18 3 0
BITMAP
001FF01C00
0073E07200
01E7E1C220
03C7C38640
078F8F0C40
0F0F9E1C80
1E1F3C3900
1E1F3CE100
3C3E7BC200
787CFE0400
787CF00800
70F9E01000
F1F9E02000
E1F1C04000
E361C08000
E663C10000
6C67C60000
3838F80000
ENDCHAR
STARTCHAR 00E7
ENCODING 231
SWIDTH 346 0
DWIDTH 18 0
BBX 24 27 3 -8
BITMAP
000070
000188
000708
000E79
001CF1
003CE3
0078E6
00F00C
01E008
01E010
03C020
038040
038080
070100
070200
060400
060800
023000
01C000
020000
060000
0E0000
1E0000
060000
C60000
CC0000
780000
ENDCHAR
STARTCHAR 00E8
ENCODING 232
SWIDTH 250 0
DWIDTH 13 0
BBX 26 30 2 0
BITMAP
00001F00
00000F00
00000F00
00000700
00000700
00000380
00000180
00000080
00000040
00000000
00000000
00000000
000F0000
003C8000
00708000
01E18000
03C31000
07871000
0F0E2000
1E184000
3E708000
3F810000
7C020000
78040000
F0080000
F0100000
E0600000
E0C00000
63000000
3C000000
ENDCHAR
STARTCHAR 00E9
ENCODING 233
SWIDTH 250 0
DWIDTH 13 0
BBX 26 27 2 0
BITMAP
000003C0
00000780
00000700
00000C00
00001800
00006000
00000000
00000000
00000000
000F0000
003C8000
00708000
01E18000
03C31000
07871000
0F0E2000
1E184000
3E708000
3FC10000
7C020000
78040000
F0080000
F0100000
E0600000
E0C00000
63000000
3C000000
ENDCHAR
STARTCHAR 00EA
ENCODING 234
SWIDTH 250 0
DWIDTH 13 0
BBX 26 28 2 0
BITMAP
000003C0
000007C0
00000F80
00001D80
00003180
00006180
00008100
00010100
00000000
00000000
000F0000
003C8000
00708000
01E18000
03C31000
07871000
0F0E2000
1E184000
3E708000
3F810000
7C020000
78040000
F0080000
F0100000
E0600000
E0C00000
63000000
3C000000
ENDCHAR
STARTCHAR 00EB
ENCODING 235
SWIDTH 250 0
DWIDTH 13 0
BBX 26 23 2 0
BITMAP
000061C0
0000F3C0
000061C0
00000000
00000000
000F0000
003C8000
00708000
01E18000
03C31000
07871000
0F0E2000
1E184000
3E708000
3F810000
7C020000
78040000
F0080000
F0100000
E0600000
E0C00000
63000000
3C000000
ENDCHAR
STARTCHAR 00EC
ENCODING 236
SWIDTH 211 0
DWIDTH 11 0
BBX 23 30 4 1
BITMAP
0000F0
0000F0
000070
000038
000038
000018
00000C
000004
000002
000000
000000
000000
01E000
01C000
03C000
078100
070200
0F0200
0E0400
1E0800
3C1000
381000
782000
704000
E08000
E10000
E10000
E20000
E40000
780000
ENDCHAR
STARTCHAR 00ED
ENCODING 237
SWIDTH 211 0
DWIDTH 11 0
BBX 22 27 4 0
BITMAP
00003C
000038
000070
0000E0
000180
000700
000000
000000
000000
01E000
03C000
03C000
078100
070200
0F0600
0E0400
1E0800
3C1000
381000
782000
704000
E08000
E10000
E10000
E20000
E40000
780000
ENDCHAR
STARTCHAR 00EE
ENCODING 238
SWIDTH 211 0
DWIDTH 11 0
BBX 22 28 4 0
BITMAP
00003C
00007C
0000FC
0001C8
000308
000608
000808
001010
000000
000000
000000
01E000
03C000
03C000
078100
070200
0F0400
1E0400
1C0800
3C1000
782000
704000
F04000
E08000
E10000
E20000
E40000
780000
ENDCHAR
STARTCHAR 00EF
ENCODING 239
SWIDTH 211 0
DWIDTH 11 0
BBX 23 23 4 0
BITMAP
00061C
000F1E
00061C
000000
000000
000000
01E000
03C000
03C000
078100
070200
0F0400
1E0400
1C0800
3C1000
782000
704000
F04000
E08000
E10000
E20000
E40000
780000
ENDCHAR
STARTCHAR 00F1
ENCODING 241
SWIDTH 346 0
DWIDTH 18 0
BBX 32 26 0 1
BITMAP
00000001
00000001
00000FFE
00001FFC
00000000
00000000
00000000
00000000
003E3C00
003CDC00
007D1C00
007A3C10
00F47830
01F87820
01F0F040
03E1E080
03C3E100
07C7C300
0F878200
0F0F8400
1E0F0800
1E1E1000
3C1E2000
7C1C4000
781C8000
F80F0000
ENDCHAR
STARTCHAR 00F2
ENCODING 242
SWIDTH 288 0
DWIDTH 15 0
BBX 26 30 3 0
BITMAP
00001F00
00000F00
00000F00
00000700
00000700
00000380
00000180
00000080
00000040
00000000
00000000
00000000
001E0000
00710000
01E10000
03C10000
07830400
0FB30800
1F721000
1E766000
3C3F8000
7C1C0000
78380000
78300000
F0600000
F0C00000
E1800000
E3000000
66000000
3C000000
ENDCHAR
STARTCHAR 00F3
ENCODING 243
SWIDTH 288 0
DWIDTH 15 0
BBX 26 27 3 0
BITMAP
000003C0
00000780
00000E00
00000C00
00003800
00006000
00008000
00000000
00000000
001E0000
00710000
01E10000
03C10000
07830400
0FB30800
1F721000
1E766000
3C3F8000
7C1C0000
78380000
78300000
F0600000
F0C00000
E1800000
E3000000
66000000
3C000000
ENDCHAR
STARTCHAR 00F4
ENCODING 244
SWIDTH 288 0
DWIDTH 15 0
BBX 26 28 3 0
BITMAP
000003C0
000007C0
00000F80
00001980
00003180
00004100
00008100
00000100
00000000
00000000
001E0000
00710000
01E10000
03C10000
07810400
0FB30800
1F721000
1E766000
3C3F8000
7C1C0000
78380000
78300000
F0600000
F0C00000
E1C00000
E3000000
66000000
3C000000
ENDCHAR
STARTCHAR 00F5
ENCODING 245
SWIDTH 288 0
DWIDTH 15 0
BBX 28 26 3 1
BITMAP
00000010
00000010
0001FFE0
0003FFC0
00000000
00000000
00000000
00000000
001E0000
00710000
01E10000
03C10000
07830200
0FB30400
1F721800
1E766000
3C3F8000
7C1C0000
78380000
78300000
F0600000
F0C00000
E1800000
E3000000
66000000
3C000000
ENDCHAR
STARTCHAR 00F6
ENCODING 246
SWIDTH 307 0
DWIDTH 16 0
BBX 22 23 3 0
BITMAP
003870
007C78
003870
000000
000000
001E00
007100
01E100
03C100
078304
0FB304
1F7308
1E7610
3C4E60
7C2D80
783E00
783800
F03000
F06000
E0C000
E18000
660000
3C0000
ENDCHAR
STARTCHAR 00F7
ENCODING 247
SWIDTH 557 0
DWIDTH 29 0
BBX 24 21 2 2
BITMAP
003C00
007E00
007E00
007E00
007E00
003C00
000000
000000
000000
FFFFFF
FFFFFF
FFFFFF
000000
000000
000000
003C00
007E00
007E00
007E00
007E00
003C00
ENDCHAR
STARTCHAR 00F8
ENCODING 248
SWIDTH 326 0
DWIDTH 17 0
BBX 22 27 4 -4
BITMAP
000040
000080
000080
000080
000100
000F00
003100
00E100
01C100
078104
0F3308
1E7B10
1C7360
3C3F80
781C00
703800
F07000
E06000
E0C000
E18000
660000
180000
200000
400000
400000
800000
800000
ENDCHAR
STARTCHAR 00F9
ENCODING 249
SWIDTH 365 0
DWIDTH 19 0
BBX 27 31 4 -1
BITMAP
00000F00
00000F80
00000780
00000780
00000380
00000180
000000C0
000000C0
00000060
00000000
00000000
00000000
00000000
01E1F000
03E1E000
03C3E000
0783C100
07878300
0F078200
0E0F0400
1E1E0C00
1C1E1800
383C1000
787C2000
70F84000
60F08000
E1718000
C2630000
C4620000
58680000
60300000
ENDCHAR
STARTCHAR 00FA
ENCODING 250
SWIDTH 365 0
DWIDTH 19 0
BBX 26 27 4 -1
BITMAP
000001C0
00000380
00000700
00000E00
00001800
00003000
00004000
00000000
00000000
01E0F000
01E1E000
03C1E000
03C3C100
07838100
0F078200
0F0F0600
1E0F0C00
1C1E0800
3C3C1000
387C2000
70786000
70F84000
E1708000
E2610000
C4620000
C8640000
70380000
ENDCHAR
STARTCHAR 00FB
ENCODING 251
SWIDTH 365 0
DWIDTH 19 0
BBX 27 29 4 -2
BITMAP
000001E0
000003C0
000007C0
00000CC0
00003880
00006080
0000C080
00010080
00000000
00000000
00000000
01E0F000
01E1E000
03C1E000
03C3C100
07838100
0F078200
0F0F0600
1E0F0C00
1C1E0800
3C3C1000
387C2000
70786000
70F84000
E1708000
E2610000
C4620000
C8640000
70380000
ENDCHAR
STARTCHAR 00FC
ENCODING 252
SWIDTH 365 0
DWIDTH 19 0
BBX 24 24 4 -2
BITMAP
000E1C
000F3E
000E1C
000000
000000
000000
01E0F0
01E1E0
03C1E0
03C3C1
078781
0F0782
0F0F06
1E1F0C
1C1E08
3C3C10
387C20
707860
70F840
E17080
E26100
C46200
C86400
703800
ENDCHAR
STARTCHAR 00FF
ENCODING 255
SWIDTH 365 0
DWIDTH 19 0
BBX 40 41 -8 -18
BITMAP
000000030E
000000078F
000000030E
0000000000
0000000000
0000000000
00003C1E00
00007C3C00
0000F87C00
0000F07830
0001F0F020
0001E1F040
0003C1E0C0
000783C180
000787C100
000F078200
000E0F8400
001E1F0800
001C3E1000
001C7E2000
0038FCC000
0019390000
001E7E0000
0000780000
0000E00000
0001E00000
0003C00000
001FC00000
0063800000
0187000000
0707000000
0E0E000000
1C0C000000
381C000000
7038000000
6030000000
C060000000
C0C0000000
C180000000
6700000000
3C00000000
ENDCHAR
STARTCHAR 0131
ENCODING 305
SWIDTH 211 0
DWIDTH 11 0
BBX 16 18 4 1
BITMAP
01E0
01C0
03C0
0781
0702
0F02
0E04
1E08
3C10
3810
7820
7040
E080
E100
E100
E200
E400
7800
ENDCHAR
STARTCHAR 0152
ENCODING 338
SWIDTH 1615 0
DWIDTH 84 0
BBX 79 41 25 1
BITMAP
00000001FFE00000FFF0
0000000FF030000FC03C
0000007F8008007E000E
000001F7000801F8000E
000003EC000407E0000E
00000FB800040F80001E
00003F7000041F00003C
00007CE000043E000078
0001F9C000047C0000F0
0003F1C000047C0003C0
0007E380000CF8001E00
000FC700000CF800F800
001F06000008F81F8000
003E0E000018FFE00000
00FE1C000010F8000000
01FC1C00003078000000
01F81800007038000000
03F0380000601C000000
07E0300000E0FFFE0000
0FC0300001CFE0000000
0F80300001BF00000000
1F80300003FC00000000
1F00100007F000000000
3E0018000FE0001F0000
3E000FC00F80007FC000
7C0000001F0001C1C000
7C0000003E000300C000
F80000007E000600C000
F8000000FC000C00C000
F8000001F8000000C000
F0000003F80000008000
F0000007F00000010000
F000000DF00000030000
F0000039F00000060000
70000071F000000C0000
700000C1F00000100000
38000380F80000600000
18000600780001800000
0C0018003C0006000000
0701E0001F0078000000
00FE000003FF80000000
ENDCHAR
STARTCHAR 0153
ENCODING 339
SWIDTH 557 0
DWIDTH 29 0
BBX 36 19 3 0
BITMAP
001E001E00
0079007300
00F100E300
01E103C300
03C1078610
07810F0C30
0F311E1860
1E711C30C0
3E733C6180
3C2F790300
781FFE0200
783EF00400
F07CE00800
F079E01000
E071E02000
E0E1C04000
E1C1C18000
6300E60000
3C00780000
ENDCHAR
STARTCHAR 0160
ENCODING 352
SWIDTH 846 0
DWIDTH 44 0
BBX 60 59 6 -2
BITMAP
0000000201000000
0000000206000000
000000020C000000
0000000638000000
00000006F0000000
00000007E0000000
00000007C0000000
0000000F80000000
0000000000000000
0000000000000000
0000000000000000
0000000000000000
0000000000000000
0000000000000000
0000000000000000
00000000000001E0
0000000000000630
0000000000001810
0000000000003010
000000000000E030
000000000001C020
000000000001C060
00000000000380C0
0000000000070180
00000000000F0300
00000000000E0E00
00000000001E1C00
00000000003E3800
00000000003CE000
00001FF0003DC000
0000FC0C007F0000
0003E00300780000
0007800180F80000
000E0000C0F80000
001C000041F00000
0038000047F00000
007000003DF00000
0060000031F00000
00C0000063E00000
01800001E3E00000
0180000363E00000
0100000C47C00000
0300001847C00000
0200006087800000
020001C18F800000
020003010F000000
02000E061F000000
0200380C1E000000
020070303C000000
0301C0003C000000
0107000078000000
011E0000F0000000
81F80001E0000000
43E00003C0000000
3FC0000700000000
0020000E00000000
0018001800000000
000700E000000000
0001FF0000000000
ENDCHAR
STARTCHAR 0161
ENCODING 353
SWIDTH 250 0
DWIDTH 13 0
BBX 28 28 3 0
BITMAP
00002030
00002060
000021C0
00006380
00006F00
00007E00
0000FC00
0000F800
00300000
00700000
00F00000
00E00000
01C00000
03C00000
07C00000
04C01000
00E02000
00E04000
00E08000
00E10000
00E60000
21E80000
51F00000
8FC00000
87C00000
87800000
CF000000
7C000000
ENDCHAR
STARTCHAR 0178
ENCODING 376
SWIDTH 1076 0
DWIDTH 56 0
BBX 68 66 12 -14
BITMAP
0000000C3800000000
0000001E3C00000000
0000000C3800000000
000000000000000000
000000000000000000
000000000000000000
000000000000000000
000000000000000000
000000000000000000
000000000000000000
000000000000000000
000000000000000000
000000000003C00000
00003FC0000F800030
0001E038003E000060
0007800400FC0000C0
001E000003F8000180
003C000005F0000700
007800001BE0000E00
00F000002F80001C00
00E000005F00003800
01E00001BE00007000
01C000027C0000E000
01C0000CF80001E000
01C00031F00003C000
01C00043E000078000
00C00187C0000F8000
00E0060FC0001F0000
0070380F80007E0000
001FC01F0000BE0000
0000003E00013C0000
0000007C0002780000
0000007C0004F80000
000000F80009F00000
000000F00011E00000
000000F00023E00000
000001E00047C00000
000001E00087800000
000001E0010F800000
000001C0021F000000
000001C00C3E000000
000000C0107E000000
000000C0607C000000
0000006180F8000000
001FC03E01F8000000
00F0300001F0000000
0380080003E0000000
07000C0007E0000000
0C0004000FC0000000
180004000F80000000
300004001F00000000
700004003E00000000
600008007C00000000
400010007800000000
C0086000F000000000
80078001E000000000
80000003C000000000
800000070000000000
8000000E0000000000
800000180000000000
400000700000000000
400001C00000000000
200007000000000000
18001C000000000000
0600F0000000000000
01FF00000000000000
ENDCHAR
STARTCHAR 017D
ENCODING 381
SWIDTH 865 0
DWIDTH 45 0
BBX 62 58 4 0
BITMAP
0000000000600000
0000000040C00000
0000000043800000
0000000047000000
00000000DE000000
00000000FC000000
00000001F8000000
00000001F0000000
0000000000000000
0000000000000000
0000000000000000
0000000000000000
0000000000000000
0000000000000000
0000000000000000
0000000000000000
0000000000000000
0000000000000000
00000001FFFFFFFC
0000001FFFFFFFE0
00000060000000C0
0000018000000300
0000060000000E00
0000080000003800
000010000000E000
000020000003C000
0000200000078000
00004000C01E0000
00004001807C0000
0000400300F00000
0000400E03E00000
0000601807800000
000030601F000000
00000F807E000000
00000000F8000000
00000003F0000000
00000007C0000000
0000001F80000000
0000003E00000000
000000F800000000
000001F000000000
000007C00FC00000
00000F0030200000
00003E00C0100000
0000780100080000
0000E00200080000
0003C00400080000
0007000000080000
001C000000100000
0030000000300000
0060000000600000
0080000001C00000
030000001F800000
040FFFFFFF000000
09FFFFFFFE000000
3FFFFFFFF8000000
7FFFFFFFC0000000
C0001FFC00000000
ENDCHAR
STARTCHAR 017E
ENCODING 382
SWIDTH 288 0
DWIDTH 15 0
BBX 42 46 -10 -19
BITMAP
000000008040
000000008180
000000008300
000000018E00
00000001BC00
00000001F800
00000003F800
00000003F000
000000000000
000000000000
000003C00000
00000FE00000
00003FE00000
000071E04000
0000E1E0C000
000081E08000
000003C18000
000003C30000
000007860000
000007040000
00000F080000
00000E100000
00001C200000
000038400000
000060800000
001FC1000000
001F86000000
0000D8000000
0000F0000000
0001E0000000
0007E0000000
001DE0000000
0071E0000000
01C3C0000000
0703C0000000
0E03C0000000
1C0780000000
380F80000000
700F00000000
601E00000000
C03C00000000
807800000000
80F000000000
81E000000000
C78000000000
7E0000000000
ENDCHAR
STARTCHAR 0192
ENCODING 402
SWIDTH 480 0
DWIDTH 25 0
BBX 53 53 -7 -11
BITMAP
000000000007F0
00000000001CF8
000000000031F8
000000000041F8
0000000000C1F8
000000000180F0
00000000030000
00000000060000
000000000E0000
000000000C0000
00000000180000
00000000300000
00000000300000
00000000600000
00000000E00000
00000000C00000
00000001800000
00000003800000
00000007000000
000000FFFF0000
000000FFFF0000
0000000E000000
0000001C000000
0000003C000000
00000038000000
00000070000000
00000070000000
000000E0000000
000001E0000000
000001C0000000
00000380000000
00000380000000
00000700000000
00000F00000000
00000E00000000
00001C00000000
00001C00000000
00003800000000
00007800000000
00007000000000
0000F000000000
0000E000000000
0001C000000000
0003C000000000
00038000000000
00070000000000
000E0000000000
780E0000000000
FC180000000000
FC300000000000
FC600000000000
F9800000000000
7E000000000000
ENDCHAR
STARTCHAR 02C6
ENCODING 710
SWIDTH 192 0
DWIDTH 10 0
BBX 11 8 15 20
BITMAP
01E0
03E0
07E0
0E60
1C40
3040
6040
8000
ENDCHAR
STARTCHAR 02C7
ENCODING 711
SWIDTH 192 0
DWIDTH 10 0
BBX 12 8 17 20
BITMAP
2010
2060
21C0
6380
6F00
7E00
7C00
F800
ENDCHAR
STARTCHAR 02D8
ENCODING 728
SWIDTH 192 0
DWIDTH 10 0
BBX 12 7 18 20
BITMAP
C030
C020
C060
C1C0
E780
7E00
7C00
ENDCHAR
STARTCHAR 02DA
ENCODING 730
SWIDTH 192 0
DWIDTH 10 0
BBX 9 9 17 19
BITMAP
1E00
7F00
6380
C180
C180
C180
6380
7F00
1C00
ENDCHAR
STARTCHAR 02DC
ENCODING 732
SWIDTH 230 0
DWIDTH 12 0
BBX 13 4 16 22
BITMAP
0008
0008
7FF0
FFE0
ENDCHAR
STARTCHAR 0394
ENCODING 916
SWIDTH 615 0
DWIDTH 32 0
BBX 30 35 1 1
BITMAP
00030000
00030000
00078000
00078000
00078000
000FC000
000FC000
001FE000
001FE000
001BF000
003BF000
0031F000
0071F800
0071F800
00E0FC00
00E0FC00
00C07C00
01C07E00
01C07E00
03803F00
03803F00
03001F00
07001F80
06001F80
0E000FC0
0E000FC0
0C0007C0
1C0007E0
180003E0
380003F0
380003F0
300001F8
700001F8
7FFFFFF8
FFFFFFFC
ENDCHAR
STARTCHAR 03A9
ENCODING 937
SWIDTH 769 0
DWIDTH 40 0
BBX 33 35 3 0
BITMAP
000FFC0000
00FFFF8000
01F007E000
07C001F000
0F8000F800
1F00007C00
3E00003E00
3E00001F00
7C00001F00
7C00000F00
FC00000F80
F800000F80
F800000F80
F800000F80
F800000F80
F800000F80
F800000F80
FC00000F80
7C00000F00
7C00001F00
7E00001F00
3E00003E00
1F00003C00
0F80007C00
07C000F800
03F003E000
80FC0F8080
800C0C0080
800C0C0080
C00C0C0180
F00C0C0380
FFFC0FFF80
FFFC0FFF80
FFFC0FFF80
FFFC0FFF80
ENDCHAR
STARTCHAR 03C0
ENCODING 960
SWIDTH 557 0
DWIDTH 29 0
BBX 26 23 1 0
BITMAP
0FFFFFC0
3FFFFFC0
7FFFFF00
E181F000
C181F000
0181F000
0181F000
0181F000
0181F000
0181F000
0181F000
0181F000
0181F000
0181F000
0381F040
0381F040
8381F040
8701F040
FF01F0C0
FF00F080
FE00FF80
7E007F00
3C003E00
ENDCHAR
STARTCHAR 2014
ENCODING 8212
SWIDTH 1000 0
DWIDTH 52 0
BBX 49 4 2 17
BITMAP
FFFFFFFFFFFF80
FFFFFFFFFFFF00
FFFFFFFFFFFF00
FFFFFFFFFFFF00
ENDCHAR
STARTCHAR 2018
ENCODING 8216
SWIDTH 230 0
DWIDTH 12 0
BBX 10 10 23 25
BITMAP
01C0
0300
0C00
1800
3000
7C00
FC00
FC00
FC00
7800
ENDCHAR
STARTCHAR 2019
ENCODING 8217
SWIDTH 230 0
DWIDTH 12 0
BBX 10 10 22 25
BITMAP
0380
07C0
0FC0
0FC0
0F80
0700
0600
0C00
3800
E000
ENDCHAR
STARTCHAR 201A
ENCODING 8218
SWIDTH 211 0
DWIDTH 11 0
BBX 10 11 0 -6
BITMAP
0380
07C0
0FC0
0FC0
0F80
0780
0700
0C00
1800
7000
8000
ENDCHAR
STARTCHAR 201C
ENCODING 8220
SWIDTH 346 0
DWIDTH 18 0
BBX 18 11 12 24
BITMAP
00C0C0
038380
060600
0C0C00
383800
387800
7C7C00
FCFC00
FCFC00
F8F800
707000
ENDCHAR
STARTCHAR 201D
ENCODING 8221
SWIDTH 346 0
DWIDTH 18 0
BBX 18 11 13 25
BITMAP
010100
07C7C0
0FCFC0
0FCFC0
0F8F80
078780
030300
060E00
181800
707000
C0C000
ENDCHAR
STARTCHAR 201E
ENCODING 8222
SWIDTH 346 0
DWIDTH 18 0
BBX 17 11 0 -6
BITMAP
038700
07CF80
0FDF80
0FDF80
0F9F00
070F00
070E00
0C1C00
183000
706000
808000
ENDCHAR
STARTCHAR 2026
ENCODING 8230
SWIDTH 1000 0
DWIDTH 52 0
BBX 41 7 5 0
BITMAP
30000C000600
78001E000F00
FC003F001F80
FC003F001F80
FC003F001F80
FC003F001F80
78001E000F00
ENDCHAR
STARTCHAR 2039
ENCODING 8249
SWIDTH 346 0
DWIDTH 18 0
BBX 11 18 10 1
BITMAP
00E0
03C0
0780
0E00
1800
7000
F000
F000
7000
7000
3000
3000
3800
1800
1C00
0C00
0600
0200
ENDCHAR
STARTCHAR 203A
ENCODING 8250
SWIDTH 346 0
DWIDTH 18 0
BBX 10 18 11 1
BITMAP
0800
0C00
0600
0600
0300
0300
0300
0180
0180
01C0
01C0
0180
0300
0600
1C00
7800
E000
8000
ENDCHAR
STARTCHAR 2122
ENCODING 8482
SWIDTH 711 0
DWIDTH 37 0
BBX 30 19 7 19
BITMAP
FFF1800C
FFF3801C
0E03801C
0E07803C
0E07C07C
0E07C07C
1C0FC0DC
1C0CC1DC
1C1CE19C
1C1CE39C
1C18E71C
3838661C
38387E1C
38707C1C
38707C1C
3060781C
70E0301C
70E0301C
00002000
ENDCHAR
STARTCHAR 2202
ENCODING 8706
SWIDTH 500 0
DWIDTH 26 0
BBX 20 33 3 0
BITMAP
00FC00
01FF00
03F180
03E080
03C0C0
000060
000060
000060
000070
000070
000070
000070
000070
01F870
07FC70
0F0670
1E0370
3C0170
7801F0
7801F0
F801E0
F001E0
F001E0
F001E0
F001C0
F001C0
F00180
700380
700300
380600
380C00
1E1800
07E000
ENDCHAR
STARTCHAR 220F
ENCODING 8719
SWIDTH 826 0
DWIDTH 43 0
BBX 41 50 1 -11
BITMAP
FFFFFFFFFF80
FFFFFFFFFF80
07C00001F000
07C00001F000
07C00001F000
07C00001F000
07C00001F000
07C00001F000
07C00001F000
07C00001F000
07C00001F000
07C00001F000
07C00001F000
07C00001F000
07C00001F000
07C00001F000
07C00001F000
07C00001F000
07C00001F000
07C00001F000
07C00001F000
07C00001F000
07C00001F000
07C00001F000
07C00001F000
07C00001F000
07C00001F000
07C00001F000
07C00001F000
07C00001F000
07C00001F000
07C00001F000
07C00001F000
07C00001F000
07C00001F000
07C00001F000
07C00001F000
07C00001F000
07C00001F000
07C00001F000
07C00001F000
07C00001F000
07C00001F000
07C00001F000
07C00001F000
07C00001F000
07C00001F000
07C00001F000
FFFC001FFF80
FFFC001FFF80
ENDCHAR
STARTCHAR 2211
ENCODING 8721
SWIDTH 711 0
DWIDTH 37 0
BBX 32 49 2 -10
BITMAP
7FFFFFF8
3FFFFFF8
1F8007FC
1FC001FC
0FC0007C
07E0003C
07F0003C
03F8001C
01F8000E
00FC000E
00FE000E
007F0006
003F0000
001F8000
001FC000
000FC000
0007E000
0003F000
0003F800
0001F800
0000FC00
00007E00
00007F00
00003F00
00001F80
00001F00
00000E00
00001C00
00003800
00007800
0000F000
0001E000
0001C000
00038000
00070000
000E0000
001C0000
003C0003
00780003
00F00007
01E00007
01C0000E
0380001E
0700003E
0E0001FE
1FFFFFFC
3FFFFFFC
7FFFFFF8
FFFFFFE0
ENDCHAR
STARTCHAR 221A
ENCODING 8730
SWIDTH 557 0
DWIDTH 29 0
BBX 31 43 0 -1
BITMAP
0000003E
0000007E
00000070
00000060
000000E0
000000E0
000000C0
000001C0
000001C0
00000180
00000380
00000300
00000700
00000700
00000600
00000E00
00000E00
06000C00
1E001C00
FE001C00
FF003800
1F003800
0F003000
0F807000
0F807000
07806000
07C0E000
03C0E000
03E1C000
03E1C000
01E18000
01F38000
01F38000
00F30000
00FF0000
00FF0000
007E0000
007E0000
003C0000
003C0000
003C0000
00180000
00180000
ENDCHAR
STARTCHAR 221E
ENCODING 8734
SWIDTH 711 0
DWIDTH 37 0
BBX 31 19 3 6
BITMAP
07C00FC0
1FF01FE0
3FF83FF8
78387C18
601CF80C
400FF004
C007E006
8003E002
8003C002
8007C002
80078002
800F8002
C00FC006
401FE004
603E700C
307C781C
1FF83FF8
0FF01FF0
07E007C0
ENDCHAR
STARTCHAR 222B
ENCODING 8747
SWIDTH 269 0
DWIDTH 14 0
BBX 23 49 -4 -10
BITMAP
0000F8
0001FC
0007FE
00073E
000E3E
001E1C
001E00
001E00
003E00
003C00
003C00
003C00
003C00
007C00
007C00
007C00
007C00
007C00
007C00
007C00
007C00
007C00
007C00
007C00
007C00
007C00
007C00
007C00
007C00
007C00
007C00
007C00
007C00
007C00
007C00
007C00
007C00
007800
007800
007800
007800
007800
00F000
00F000
70E000
F8E000
FDC000
FF8000
3E0000
ENDCHAR
STARTCHAR 2248
ENCODING 8776
SWIDTH 557 0
DWIDTH 29 0
BBX 27 13 1 6
BITMAP
00000020
0FF800E0
3FFF83E0
FFFFFFE0
F80FFF80
E000FC00
80000060
07F000E0
3FFF03E0
FFFFFFE0
F81FFF80
E003FE00
80000000
ENDCHAR
STARTCHAR 2260
ENCODING 8800
SWIDTH 557 0
DWIDTH 29 0
BBX 24 22 2 1
BITMAP
00000C
00001E
00003E
00007C
0000F8
0001F0
FFFFFF
FFFFFF
FFFFFF
001F00
001E00
003C00
007800
FFFFFF
FFFFFF
FFFFFF
078000
0F0000
1E0000
3C0000
380000
100000
ENDCHAR
STARTCHAR 2264
ENCODING 8804
SWIDTH 557 0
DWIDTH 29 0
BBX 24 22 2 2
BITMAP
000003
00003F
0001FF
000FFF
007FF0
03FF80
3FFC00
FFE000
FF0000
FF0000
FFF000
1FFE00
03FFC0
003FF8
0007FF
0000FF
00001F
000003
000000
FFFFFF
FFFFFF
FFFFFF
ENDCHAR
STARTCHAR 2265
ENCODING 8805
SWIDTH 557 0
DWIDTH 29 0
BBX 24 22 2 2
BITMAP
E00000
FC0000
FF8000
7FF800
0FFF00
01FFE0
003FFC
0003FF
00007F
0000FF
0007FF
003FF8
01FFC0
1FFE00
FFF000
FF8000
F80000
C00000
000000
FFFFFF
FFFFFF
FFFFFF
ENDCHAR
STARTCHAR 25CA
ENCODING 9674
SWIDTH 500 0
DWIDTH 26 0
BBX 25 52 0 -12
BITMAP
000C0000
000C0000
001E0000
001E0000
003E0000
003F0000
00770000
00738000
00E38000
00E1C000
01C1C000
01C0E000
0380E000
03807000
03007000
07003800
07003800
0E001C00
0E001C00
1C000E00
1C000E00
38000600
38000700
70000700
70000380
E0000380
E0000380
70000380
70000700
38000700
38000600
1C000E00
1C000C00
0E001C00
0E001C00
07003800
07003800
03007000
03807000
0380E000
01C0E000
01C1C000
00E1C000
00E38000
00738000
00730000
003F0000
003E0000
001E0000
001E0000
000C0000
000C0000
ENDCHAR
STARTCHAR F8FF
ENCODING 63743
SWIDTH 980 0
DWIDTH 51 0
BBX 46 28 13 1
BITMAP
00000000000C
00000000000C
00000000000C
00000000000C
00000000001C
0003E7C0003C
0007FFF0003C
00053FFC007C
00097FFF007C
00087FFFC1FC
00081FFFFFFC
00083FFFFFF8
FFFFFFFFFFF0
CDFCFFFFFFF0
C1F87FFFFFF0
61F87FFFFFF0
23F87FFFFFE0
27F87FFFFFC0
1FF8FFFFFF80
0FF8FFFFFE00
00F89FFFFC00
007B1FFFFC00
003C1FFFF800
00003FF3F800
00007FE7F800
00007FC7F000
00007F87F000
0000FF07E000
ENDCHAR
STARTCHAR FB01
ENCODING 64257
SWIDTH 750 0
DWIDTH 39 0
BBX 32 23 16 10
BITMAP
00000002
0008000F
0038001F
003C007E
003C01F8
001C03F0
001E0FC0
000E1F80
000F7E00
0007FC00
0007F000
000FC000
001FC000
007FC000
00FDC000
03F1E000
0FC0E000
1F80F000
7E007000
FC007800
F0003800
E0003800
00002000
ENDCHAR
STARTCHAR FB02
ENCODING 64258
SWIDTH 769 0
DWIDTH 40 0
BBX 36 39 3 0
BITMAP
0000000010
0000000030
00000000E0
00000000C0
0000000180
0000000300
0000000F00
0000001E00
0000003C00
0000007800
000001F000
000003E000
00000FC000
00001B8000
0000770000
0000CE0000
00039C0000
00073C0000
000C780000
0000F00000
0001E00000
0003C00000
0007800000
000F800000
001F000000
003E000000
007C000000
00F8000000
01F8000000
03F0000000
07E0000000
0FC0000000
0FC0000000
1F80000000
3F00000000
7F00000000
7E00000000
FC00000000
FC00000000
ENDCHAR
ENDFONT
